<?xml version="1.0" standalone="no"?>
<!DOCTYPE svg PUBLIC "-//W3C//DTD SVG 20010904//EN"
 "http://www.w3.org/TR/2001/REC-SVG-20010904/DTD/svg10.dtd">
<svg version="1.0" xmlns="http://www.w3.org/2000/svg"
 width="763.000000pt" height="763.000000pt" viewBox="0 0 763.000000 763.000000"
 preserveAspectRatio="xMidYMid meet">
<metadata>
Created by potrace 1.16, written by Peter Selinger 2001-2019
</metadata>
<g transform="translate(0.000000,763.000000) scale(0.100000,-0.100000)"
fill="#fff" stroke="none">
<path d="M3251 7010 c-43 -96 -87 -233 -102 -314 -17 -91 -2 -154 79 -321 65
-137 67 -142 67 -220 0 -75 -3 -87 -48 -185 -94 -204 -112 -287 -88 -411 7
-33 11 -62 9 -64 -2 -1 -72 99 -156 224 -84 125 -163 240 -176 256 l-24 30 14
-55 c8 -30 40 -157 73 -282 32 -126 55 -228 50 -228 -4 0 -33 28 -64 62 -75
83 -119 177 -145 308 -36 179 -65 217 -262 335 -230 138 -318 238 -385 436
l-18 54 -3 -90 c-4 -103 14 -288 33 -353 24 -78 79 -146 200 -248 73 -61 126
-114 143 -143 26 -45 27 -50 33 -256 6 -231 15 -272 79 -362 17 -24 29 -43 25
-43 -3 0 -116 77 -251 171 -135 94 -247 169 -249 167 -2 -2 75 -113 170 -248
96 -134 173 -246 171 -248 -2 -2 -39 13 -81 34 -100 48 -171 115 -241 223
-100 152 -148 188 -292 215 -45 9 -119 23 -164 32 -167 32 -307 114 -409 239
-29 36 -54 63 -56 62 -10 -11 86 -238 144 -339 72 -125 119 -159 316 -227 212
-73 224 -85 297 -290 67 -189 118 -266 222 -333 26 -17 47 -33 45 -34 -1 -2
-124 28 -272 66 -149 39 -276 70 -284 70 -19 0 0 -14 248 -181 207 -139 213
-144 177 -147 -61 -5 -195 25 -260 59 -34 18 -94 57 -134 87 -40 30 -90 61
-110 68 -58 21 -159 16 -293 -13 -150 -32 -282 -35 -378 -9 -61 17 -190 74
-218 98 -8 6 -16 8 -19 5 -9 -9 195 -214 266 -267 108 -80 124 -84 355 -84
235 -1 243 -4 340 -108 148 -158 232 -235 278 -254 26 -10 47 -21 47 -24 0 -3
-123 -30 -272 -60 l-273 -54 110 -17 c172 -27 592 -89 600 -89 24 0 -19 -24
-98 -54 -151 -58 -278 -66 -418 -26 -57 16 -144 12 -201 -11 -29 -11 -103 -56
-163 -99 -219 -154 -296 -183 -488 -184 l-129 -1 74 -33 c96 -44 236 -90 321
-104 95 -17 153 -2 332 84 140 68 154 73 215 72 57 0 81 -7 190 -56 69 -31
149 -63 179 -72 68 -20 169 -21 241 -2 30 8 56 13 57 12 2 -1 -68 -42 -155
-91 -332 -186 -391 -220 -384 -222 4 -2 138 19 297 46 160 27 292 47 295 44 8
-8 -115 -116 -174 -151 -35 -22 -91 -42 -162 -59 -162 -38 -194 -51 -245 -102
-25 -25 -77 -100 -116 -166 -39 -67 -91 -146 -116 -176 -75 -92 -191 -169
-327 -215 l-55 -19 80 -3 c96 -4 270 13 351 33 82 22 155 75 237 175 109 132
138 161 192 186 46 22 63 24 205 24 180 0 268 16 347 60 30 17 51 25 47 18 -5
-7 -79 -112 -165 -233 -220 -310 -212 -292 -94 -210 55 38 163 113 240 166 77
54 153 107 168 119 15 12 30 20 33 17 12 -11 -71 -154 -119 -204 -28 -30 -94
-83 -147 -118 -143 -94 -166 -135 -205 -366 -46 -274 -104 -376 -304 -537 -30
-23 134 40 247 95 122 60 198 120 236 187 14 22 45 102 71 176 72 208 89 226
299 305 62 24 131 52 152 63 52 26 127 94 155 138 11 19 23 33 25 31 2 -2 -27
-143 -65 -313 -38 -170 -68 -310 -66 -312 1 -1 47 68 101 155 54 87 132 210
173 273 l73 115 -6 -75 c-8 -103 -40 -190 -102 -279 -102 -146 -109 -159 -112
-238 -3 -52 3 -106 24 -200 40 -182 40 -334 0 -448 -15 -44 -41 -102 -57 -129
-17 -26 -28 -50 -26 -53 13 -13 215 193 276 282 64 91 72 133 69 346 -2 157 0
190 15 224 11 26 71 92 166 185 114 112 152 156 167 192 18 46 34 62 34 36 1
-51 88 -569 93 -553 3 11 36 175 73 364 47 243 70 338 76 327 28 -50 60 -170
65 -242 4 -62 0 -105 -17 -185 -39 -182 -25 -236 111 -424 135 -188 176 -310
166 -493 -7 -121 -3 -120 55 18 47 110 75 199 90 276 16 89 0 152 -80 319 -66
137 -67 142 -67 220 1 75 4 86 52 187 48 100 73 167 87 231 4 15 10 25 15 23
5 -3 60 -98 122 -211 63 -113 115 -200 117 -193 1 8 -24 175 -57 373 -33 198
-58 362 -55 364 3 3 45 -36 94 -86 110 -111 150 -188 183 -350 37 -176 71
-217 287 -343 185 -108 301 -249 351 -425 l17 -60 7 58 c14 106 -13 361 -46
435 -29 67 -72 115 -194 217 -159 132 -165 146 -165 364 0 98 -6 192 -14 229
-7 34 -11 62 -8 62 3 0 75 -53 161 -118 192 -146 190 -145 161 -96 -29 46
-255 393 -313 478 l-40 59 29 -7 c16 -4 75 -29 131 -56 125 -61 184 -115 276
-256 94 -144 134 -167 346 -205 173 -30 198 -37 296 -84 90 -44 164 -104 229
-187 16 -21 31 -36 34 -34 8 8 -49 148 -105 258 -70 138 -123 198 -217 242
-39 19 -98 42 -131 52 -140 39 -216 89 -256 166 -10 21 -36 86 -58 145 -47
134 -72 183 -118 233 -22 25 -30 40 -21 40 8 0 115 -20 238 -45 123 -25 225
-43 227 -41 2 2 -124 82 -281 177 l-285 174 75 3 c95 4 215 -19 289 -53 31
-15 92 -54 135 -86 43 -33 97 -66 121 -74 61 -22 160 -18 300 11 228 47 364
34 531 -50 l88 -43 -39 46 c-55 65 -176 180 -243 230 -93 70 -148 82 -362 79
-232 -4 -236 -2 -377 158 -147 167 -205 208 -328 235 -29 6 -51 13 -48 15 2 2
120 27 263 54 262 51 297 59 279 66 -12 4 -539 84 -555 84 -28 0 -3 21 53 43
131 52 241 60 395 27 153 -32 227 -10 402 120 102 76 191 126 280 155 42 14
87 19 187 19 l132 1 -45 23 c-116 59 -329 122 -415 122 -66 0 -137 -24 -268
-91 -190 -97 -234 -98 -434 -4 -133 62 -201 78 -304 73 -46 -2 -80 -1 -76 2 5
4 107 69 228 145 121 75 226 143 233 150 8 7 -125 -19 -294 -57 -170 -37 -314
-66 -320 -64 -7 3 -20 -5 -31 -16 -18 -20 -18 -21 2 -15 32 10 558 127 569
127 6 0 -95 -67 -224 -148 -205 -130 -304 -182 -345 -182 -13 0 -68 108 -60
120 3 4 1 10 -4 12 -6 1 -35 44 -66 93 l-57 90 56 52 c72 67 161 109 355 167
240 73 281 100 382 247 97 142 158 198 284 262 39 20 66 36 62 37 -16 0 -130
-61 -176 -94 -65 -48 -119 -108 -181 -199 -92 -136 -148 -169 -397 -237 -178
-50 -269 -91 -346 -161 -32 -28 -59 -50 -60 -48 -2 2 -33 39 -71 82 l-68 78
61 57 c34 32 64 56 68 53 3 -4 3 0 -1 6 -4 8 48 85 136 200 170 223 200 263
194 263 -3 0 -119 -74 -258 -165 -139 -90 -255 -160 -257 -154 -1 5 15 47 37
93 49 102 132 194 233 256 153 95 181 146 224 408 9 57 25 128 36 159 41 120
123 236 218 308 28 22 49 41 47 43 -7 7 -189 -69 -276 -115 -167 -89 -200
-130 -276 -345 -77 -218 -94 -235 -311 -316 -128 -49 -241 -113 -266 -153 -6
-10 -15 -19 -18 -19 -4 0 20 105 52 233 32 127 58 236 56 240 -1 4 -83 -113
-182 -260 l-180 -268 -3 50 c-5 70 13 192 37 256 21 56 55 113 127 218 71 103
75 167 23 406 -25 114 -29 251 -10 337 7 31 34 99 60 152 29 57 41 91 32 86
-27 -15 -173 -161 -230 -230 -30 -36 -66 -90 -80 -120 -25 -54 -26 -60 -26
-265 0 -258 5 -246 -169 -409 -127 -119 -174 -179 -196 -251 -7 -22 -15 -43
-19 -47 -4 -4 -31 114 -60 263 -30 148 -57 266 -61 262 -4 -4 -27 -146 -51
-315 -24 -170 -47 -308 -50 -308 -9 0 -56 131 -69 190 -15 69 -12 145 10 250
40 193 29 235 -113 443 -139 202 -157 250 -166 447 l-6 135 -34 -75z m9 -131
c0 -51 34 -179 64 -237 14 -27 68 -113 120 -190 122 -181 129 -209 96 -355
-33 -149 -31 -246 9 -367 18 -52 50 -128 72 -169 23 -40 37 -77 32 -81 -7 -6
-150 -30 -180 -30 -7 0 -22 30 -34 68 -27 83 -29 230 -5 379 22 140 21 266 -3
334 -10 30 -45 98 -78 151 -74 120 -101 202 -113 338 l-9 105 4 -110 c5 -136
24 -202 99 -333 30 -53 62 -115 71 -136 29 -68 30 -167 4 -311 -33 -179 -32
-355 0 -438 13 -32 21 -59 19 -61 -1 -1 -45 -16 -96 -32 -110 -36 -99 -43
-137 101 -42 161 -34 219 52 409 29 65 61 144 69 175 15 52 15 62 0 122 -9 35
-43 120 -76 189 -91 190 -94 240 -29 443 32 100 49 112 49 36z m1208 -36 c-32
-107 -29 -256 6 -418 47 -219 40 -269 -58 -402 -109 -148 -142 -268 -133 -476
l6 -129 -22 6 c-12 4 -59 15 -104 24 l-83 17 0 35 c1 111 43 215 174 429 100
164 120 226 112 340 -24 318 -19 366 45 510 16 36 22 57 14 47 -29 -38 -76
-177 -86 -258 -8 -58 -8 -104 0 -167 27 -212 12 -276 -104 -467 -122 -198
-165 -308 -165 -420 l0 -44 -102 6 c-57 4 -106 9 -110 13 -9 8 8 149 28 226
22 87 57 140 153 230 237 222 233 214 230 481 -3 197 3 234 50 305 46 68 151
190 160 184 5 -2 0 -35 -11 -72z m-2321 -448 c39 -76 171 -200 288 -269 209
-124 233 -153 266 -316 25 -126 48 -185 105 -266 48 -68 168 -183 226 -217 21
-12 38 -24 38 -27 0 -11 -174 -110 -186 -106 -24 9 -97 111 -130 181 -18 39
-49 125 -69 193 -77 268 -104 312 -248 414 -54 39 -100 68 -102 66 -2 -2 34
-30 81 -62 147 -102 173 -146 248 -420 51 -188 87 -263 160 -344 l50 -54 -29
-21 c-17 -12 -51 -41 -76 -64 -25 -24 -51 -43 -57 -43 -19 0 -132 142 -163
205 -40 83 -49 145 -48 325 0 85 -4 170 -10 189 -18 59 -61 109 -171 201 -116
96 -150 136 -181 205 -19 42 -49 222 -48 290 0 29 0 29 15 10 9 -11 27 -42 41
-70z m3417 53 c-4 -7 -26 -40 -49 -73 -80 -114 -106 -185 -136 -365 -25 -155
-51 -237 -87 -276 -15 -17 -68 -58 -117 -91 -103 -69 -150 -113 -197 -181 -39
-57 -100 -197 -119 -272 -7 -30 -14 -56 -15 -58 -2 -3 -67 40 -172 114 -2 1 5
22 16 46 36 81 111 166 226 256 149 117 248 212 280 272 15 27 35 89 46 137
40 181 72 247 175 364 22 25 12 18 -21 -17 -78 -80 -124 -173 -164 -329 -43
-169 -73 -208 -295 -374 -151 -113 -211 -176 -258 -269 l-33 -67 -83 42 c-46
23 -88 44 -94 46 -23 7 77 171 148 243 74 74 81 78 309 165 152 58 189 105
267 338 22 63 50 132 63 152 40 59 113 113 251 183 56 29 70 32 59 14z m-1774
-540 c47 -240 51 -264 43 -340 l-8 -83 -64 0 -64 0 -26 47 -26 47 38 268 c41
283 48 325 52 321 2 -2 26 -119 55 -260z m786 -160 c-43 -173 -62 -230 -97
-294 -23 -43 -43 -80 -45 -82 -1 -2 -26 5 -54 15 -56 19 -70 39 -70 96 0 25
36 85 157 266 86 129 158 230 160 224 2 -5 -21 -107 -51 -225z m-1586 -23
c203 -300 209 -309 215 -337 6 -24 2 -28 -40 -47 -26 -12 -53 -21 -60 -21 -6
0 -36 18 -67 39 l-54 40 -64 248 c-35 136 -65 255 -68 263 -9 29 15 -5 138
-185z m-1664 -120 c113 -87 196 -118 412 -159 218 -41 247 -59 337 -206 26
-41 65 -95 88 -119 78 -81 222 -161 357 -197 36 -10 66 -19 68 -20 6 -4 -120
-169 -132 -172 -21 -5 -139 72 -196 128 -30 30 -89 100 -130 155 -41 55 -97
124 -124 154 -50 53 -129 111 -150 111 -6 -1 6 -10 26 -21 57 -30 115 -92 225
-239 114 -154 197 -236 280 -276 32 -15 60 -29 62 -30 2 -2 -18 -46 -45 -98
l-48 -96 -65 37 c-132 72 -210 142 -252 225 -12 24 -39 91 -60 151 -79 220
-108 248 -339 328 -187 65 -239 108 -322 266 -44 84 -56 113 -43 113 3 0 26
-16 51 -35z m3918 -237 c-65 -84 -146 -189 -180 -233 -34 -44 -71 -89 -83 -99
-22 -20 -22 -20 -66 24 -49 48 -55 75 -32 138 10 28 47 56 242 181 127 82 232
147 234 146 2 -2 -50 -73 -115 -157z m-1152 63 c527 -91 983 -450 1182 -933
92 -224 120 -363 121 -608 0 -276 -24 -373 -85 -340 -11 6 -25 8 -32 4 -7 -4
-1 -12 16 -21 27 -14 32 -28 17 -52 -7 -11 -13 -11 -38 1 -27 13 -93 14 -93 0
0 -2 8 -11 18 -19 16 -14 16 -14 -1 -9 -10 3 -25 6 -32 6 -20 0 -6 39 18 51
11 6 38 9 61 6 37 -5 39 -4 22 9 -17 12 -52 18 -94 17 -7 -1 -11 4 -9 11 4 13
52 13 82 1 18 -8 18 -7 6 8 -12 15 -10 18 14 27 14 5 31 10 36 10 5 0 9 6 9
14 0 8 6 17 13 20 6 3 -7 4 -30 1 -36 -4 -43 -2 -43 11 0 14 -4 13 -19 -5 -11
-12 -22 -22 -25 -22 -24 3 -36 -1 -31 -9 10 -16 -21 -12 -34 4 -10 12 -3 20
36 42 26 16 57 37 68 47 11 10 32 21 48 24 15 3 30 10 34 16 4 6 -4 8 -23 3
-21 -5 -25 -4 -14 4 8 5 25 10 36 10 12 0 29 11 38 25 18 28 13 33 -10 10 -17
-17 -60 -20 -69 -5 -6 9 -36 2 -45 -11 -3 -3 -29 -10 -57 -14 -44 -6 -53 -4
-53 9 0 19 30 36 64 36 14 0 26 5 26 10 0 14 -57 13 -66 -1 -4 -8 -10 -7 -18
1 -15 15 18 40 54 40 14 0 35 6 46 14 18 14 16 15 -21 13 -22 -1 -43 -6 -46
-11 -4 -4 -10 -3 -13 3 -7 11 31 31 59 31 7 0 16 7 19 16 5 14 1 16 -29 11
-30 -5 -36 -3 -33 11 2 9 19 25 38 35 23 11 34 23 32 35 -6 27 -11 27 -29 2
-15 -21 -17 -22 -29 -6 -8 12 -19 16 -33 11 -17 -5 -21 -2 -21 15 0 14 11 26
33 36 28 12 29 14 7 12 -19 -2 -26 2 -28 20 -2 12 0 22 5 22 4 0 8 11 8 25 0
14 -6 25 -12 25 -9 0 -13 18 -13 57 0 31 -3 53 -6 50 -4 -4 -6 -38 -5 -77 l2
-70 -47 20 c-64 28 -68 17 -5 -12 51 -23 70 -45 29 -32 l-23 6 24 -25 c17 -19
22 -33 17 -51 -8 -31 -21 -33 -36 -6 -6 11 -15 20 -19 20 -5 0 -7 -9 -4 -20 4
-16 0 -20 -19 -20 -14 0 -28 3 -32 7 -11 11 -76 31 -76 23 0 -4 12 -13 28 -19
45 -19 78 -51 63 -60 -10 -6 -8 -10 5 -15 14 -5 15 -9 6 -15 -9 -5 -5 -11 13
-21 14 -7 25 -17 25 -22 0 -5 4 -6 10 -3 5 3 7 0 4 -8 -6 -16 -61 -13 -78 4
-12 11 -26 12 -26 1 0 -4 29 -21 65 -37 36 -17 65 -35 65 -41 0 -6 -15 -14
-32 -17 -18 -3 -42 -9 -52 -13 -15 -6 -18 -4 -13 8 4 12 1 14 -14 11 -10 -3
-19 -9 -19 -14 0 -5 -8 -9 -17 -8 -11 0 -13 3 -5 6 17 7 15 33 -3 33 -9 0 -18
7 -21 15 -4 8 -12 15 -20 15 -16 0 -7 -29 15 -48 14 -10 11 -11 -14 -7 -23 4
-25 3 -10 -3 11 -5 20 -15 20 -22 0 -7 14 -18 30 -23 17 -5 40 -19 53 -30 19
-18 20 -22 7 -30 -8 -4 -18 -6 -23 -4 -4 2 -15 -4 -24 -14 -12 -12 -13 -19 -5
-23 7 -2 1 -5 -12 -5 -35 -1 -17 -14 30 -20 22 -3 40 -10 39 -16 0 -5 -4 -10
-9 -10 -5 0 -13 -3 -17 -7 -4 -5 -16 -8 -26 -8 -10 0 -18 -4 -18 -10 0 -10 18
-14 55 -11 17 1 17 -1 -5 -13 l-25 -15 36 -1 c72 0 99 -10 99 -36 0 -13 -5
-24 -11 -24 -5 0 -8 4 -5 9 7 11 -25 19 -104 28 -71 7 -112 32 -92 56 10 11 9
17 -2 27 -9 6 -20 9 -26 5 -5 -3 -10 -1 -10 4 0 6 -9 11 -19 11 -11 0 -22 4
-25 9 -8 12 -46 21 -46 10 0 -5 14 -15 30 -24 38 -20 39 -38 3 -29 -27 6 -27
6 -8 -9 24 -20 42 -21 48 -4 4 8 6 7 6 -3 1 -9 13 -23 29 -32 l27 -17 -30 -2
c-16 -1 -42 -1 -57 0 -16 1 -28 -3 -28 -8 0 -6 8 -11 18 -12 10 0 12 -3 5 -6
-27 -10 -11 -23 27 -23 41 0 113 -24 140 -47 8 -7 24 -19 35 -27 11 -9 15 -16
8 -16 -7 0 -10 -6 -7 -14 4 -10 -1 -15 -13 -14 -10 0 -26 -3 -35 -7 -10 -4
-18 -3 -18 3 0 5 -10 7 -23 5 -34 -7 -30 -33 5 -33 15 0 28 -5 28 -10 0 -7 6
-7 18 -2 11 6 30 5 52 -4 31 -11 32 -13 10 -14 -24 -1 -24 -2 8 -17 31 -16 41
-36 24 -47 -5 -3 -20 1 -35 9 -22 11 -39 12 -87 3 -46 -9 -63 -9 -72 0 -9 9
-9 12 0 12 7 0 12 4 12 8 0 5 -13 8 -30 7 -16 -1 -30 1 -30 4 0 3 -11 7 -25 9
-14 1 -36 3 -49 5 -28 2 -24 17 5 17 10 0 19 5 19 11 0 6 -6 9 -14 6 -8 -3
-20 0 -26 8 -6 7 -19 11 -29 8 -10 -3 -32 2 -49 11 -36 18 -42 19 -42 7 0 -5
16 -16 35 -25 39 -19 50 -32 35 -41 -15 -9 -12 -25 4 -25 7 0 31 -7 52 -16 34
-15 36 -18 19 -24 -11 -4 -28 -2 -37 4 -13 8 -21 7 -30 -3 -10 -11 -10 -14 0
-18 6 -3 10 -9 7 -13 -3 -5 10 -12 30 -16 19 -3 32 -10 30 -15 -3 -4 16 -6 42
-2 40 4 51 2 67 -16 11 -12 28 -21 38 -21 19 0 98 -36 98 -45 0 -3 -13 -3 -30
0 -22 4 -30 1 -30 -10 0 -8 5 -15 11 -15 5 0 7 -5 3 -12 -6 -9 -9 -9 -12 0 -2
7 -10 12 -18 12 -8 0 -14 4 -14 8 0 9 -28 13 -92 12 -28 0 -48 5 -48 11 0 5 5
7 11 3 8 -5 8 -1 0 14 -12 23 -43 33 -62 21 -8 -5 -24 -9 -36 -9 -41 0 -24
-18 24 -25 28 -4 42 -10 34 -15 -9 -5 -5 -9 13 -14 34 -8 33 -32 -2 -73 -21
-24 -31 -30 -42 -22 -13 8 -12 11 3 23 24 18 4 25 -40 15 -18 -4 -31 -3 -28 2
6 9 -61 7 -71 -4 -4 -3 1 -9 10 -13 23 -9 20 -27 -5 -21 -12 3 -22 0 -26 -9
-7 -18 -23 -18 -23 0 0 10 -7 12 -22 8 -21 -5 -21 -6 -3 -12 15 -5 11 -9 -20
-14 -21 -4 -48 -14 -59 -21 -17 -12 -23 -12 -47 5 -30 22 -49 26 -49 10 0 -14
-27 -13 -32 2 -3 8 -12 9 -35 0 -26 -8 -34 -8 -44 4 -8 10 -15 12 -23 4 -15
-15 -29 -12 -23 4 4 10 1 13 -9 9 -7 -3 -14 -9 -14 -14 0 -13 -61 -49 -83 -49
-9 0 -16 3 -15 8 4 9 -5 12 -38 12 -14 0 -22 -4 -19 -10 3 -6 -1 -7 -9 -4 -27
10 -18 19 52 51 43 21 90 34 131 37 35 3 70 11 77 17 7 6 52 12 99 12 95 2
108 14 46 42 -24 10 -38 22 -35 30 4 8 -6 16 -26 20 -40 9 -32 16 25 25 29 4
46 3 49 -4 2 -6 5 -3 5 7 1 14 11 17 66 17 72 0 81 10 34 39 -33 20 -45 18
-89 -15 -22 -17 -60 -27 -60 -16 0 12 92 53 164 72 68 19 93 47 34 37 -20 -3
-40 -1 -44 3 -14 14 -146 -12 -140 -27 3 -7 -1 -13 -9 -13 -8 0 -12 6 -9 13 2
7 -4 22 -16 32 -19 18 -22 16 -24 -15 -1 -11 -14 -15 -50 -16 -28 -1 -52 -7
-56 -15 -6 -8 -34 -14 -79 -16 -61 -2 -71 0 -71 15 0 9 -3 27 -6 40 -9 33 24
29 38 -5 10 -25 12 -26 16 -8 2 11 9 23 16 27 7 5 5 8 -6 8 -10 0 -18 4 -18 9
0 14 56 24 90 16 19 -4 30 -3 30 4 0 6 9 11 19 11 56 0 69 30 14 31 -21 0 -47
4 -58 8 -15 6 -11 9 20 14 22 4 57 7 78 7 26 0 37 4 37 15 0 9 -10 15 -22 16
-13 1 -47 3 -77 5 -31 3 -59 0 -67 -7 -10 -8 -17 -7 -29 5 -21 21 -28 20 -50
-4 -19 -21 -45 -27 -45 -10 0 5 8 13 17 19 10 5 14 13 10 17 -4 4 -15 -3 -24
-16 l-16 -23 -24 29 c-17 22 -23 25 -23 12 0 -12 -8 -18 -25 -18 -14 0 -25 2
-25 4 0 2 25 18 56 36 43 24 66 31 95 28 31 -3 39 0 39 13 0 18 28 29 77 29
37 0 63 9 63 21 0 5 -10 9 -22 10 -13 0 -17 3 -10 6 6 2 12 13 12 23 0 21 28
40 59 40 12 0 21 5 21 10 0 15 -47 12 -80 -5 -17 -9 -30 -11 -30 -6 0 14 62
50 99 57 17 4 31 10 31 15 0 5 9 9 20 9 11 0 20 5 20 10 0 6 12 15 26 21 38
14 22 23 -23 14 -21 -4 -47 -9 -58 -10 -11 -2 -37 -8 -57 -13 -24 -6 -38 -6
-38 0 0 5 -4 6 -10 3 -5 -3 -10 -15 -10 -26 0 -11 -4 -17 -10 -14 -13 8 -92
-14 -85 -24 2 -5 -4 -11 -15 -14 -11 -3 -22 -1 -25 3 -7 11 30 31 70 40 23 4
31 12 33 33 3 23 0 27 -22 27 -27 0 -44 16 -24 23 7 2 10 7 7 11 -4 4 -14 0
-23 -9 -9 -9 -16 -11 -16 -5 0 7 -18 9 -57 6 -60 -6 -83 4 -83 34 0 24 60 44
104 36 18 -3 35 -3 39 0 9 10 -4 34 -19 34 -8 0 -14 7 -14 15 0 8 -8 15 -17
15 -24 1 113 68 155 76 18 4 32 12 32 21 0 9 -6 12 -18 9 -38 -13 -132 -8
-154 6 -26 17 -128 13 -128 -5 0 -6 3 -8 6 -4 3 3 15 -3 27 -13 26 -25 16 -36
-15 -16 -16 10 -28 12 -38 6 -8 -5 -19 -10 -25 -10 -5 1 -2 5 9 11 13 8 15 13
7 19 -9 5 -2 16 20 35 30 25 39 27 91 22 32 -3 58 -1 58 3 0 13 -62 30 -118
33 -44 2 -49 4 -41 20 12 21 59 22 99 2 32 -16 43 -3 13 14 -16 8 -13 12 19
25 21 9 42 16 48 16 6 0 8 4 5 10 -4 6 1 7 11 3 13 -5 16 -2 12 9 -4 10 3 20
20 29 l27 13 -27 4 c-15 2 -36 -2 -47 -7 -31 -17 -48 -13 -56 12 -5 16 -8 18
-12 7 -11 -26 -27 -36 -62 -38 -41 -3 -51 -10 -32 -21 9 -6 10 -11 2 -15 -17
-11 -51 3 -51 20 0 12 -4 12 -20 4 -11 -6 -20 -7 -20 -3 0 4 21 19 47 33 26
14 83 49 127 78 43 28 89 52 102 52 15 0 24 6 24 15 0 17 -25 20 -35 5 -3 -5
-12 -10 -18 -10 -7 0 -1 9 13 20 14 11 33 17 42 14 19 -6 63 14 54 24 -4 3 4
16 16 29 28 30 20 29 -22 -2 -36 -27 -94 -34 -104 -12 -5 9 -7 9 -12 0 -4 -8
-13 -9 -30 -3 -19 7 -24 6 -24 -5 0 -15 -11 -19 -39 -16 -7 2 -20 -1 -30 -5
-9 -4 -31 -8 -48 -9 -28 -2 -33 1 -33 21 0 28 9 34 67 42 61 9 72 33 11 26
-23 -3 -46 -10 -49 -16 -10 -15 -29 0 -29 23 0 24 36 39 91 39 21 0 39 5 39
10 0 6 6 10 14 10 8 0 18 5 22 12 5 8 -5 9 -39 5 -32 -5 -47 -3 -50 6 -3 8
-10 5 -23 -8 -10 -12 -15 -16 -11 -9 5 7 2 14 -5 16 -7 3 12 13 42 23 51 17
69 29 70 48 0 11 -48 9 -71 -3 -17 -9 -19 -7 -19 18 0 26 6 32 55 52 30 12 55
26 55 31 0 5 -6 8 -12 7 -14 -3 -14 5 -3 35 11 27 -18 12 -44 -23 -25 -35 -41
-38 -41 -10 0 11 -2 20 -4 20 -2 0 -11 3 -20 6 -11 4 -16 1 -16 -10 0 -9 -7
-16 -15 -16 -10 0 -15 10 -15 34 0 30 4 36 40 50 48 19 51 27 8 24 -29 -3 -33
0 -36 24 -3 23 3 30 37 48 23 11 41 23 41 25 0 3 -13 -1 -30 -10 -40 -21 -43
-19 -35 17 6 26 5 30 -8 25 -22 -8 -26 10 -29 145 -2 65 -7 118 -11 118 -8 0
-2 -208 8 -292 5 -39 -2 -47 -22 -27 -13 13 -125 60 -131 55 -5 -6 58 -42 106
-61 23 -10 42 -23 42 -31 0 -10 -6 -11 -26 -3 -39 14 -38 7 1 -31 41 -40 42
-46 12 -84 l-23 -29 -22 37 c-12 20 -26 36 -32 36 -13 0 -13 -17 0 -25 6 -3
10 -15 10 -25 0 -16 -5 -18 -37 -13 -21 4 -44 12 -51 20 -7 7 -22 13 -33 13
-11 0 -29 5 -40 11 -11 6 -25 9 -31 7 -6 -2 20 -23 58 -47 38 -23 83 -52 100
-64 18 -12 40 -27 50 -33 10 -6 14 -13 8 -17 -6 -3 -23 5 -39 19 -36 31 -67
34 -40 4 18 -19 17 -20 -6 -21 l-24 0 25 -12 c14 -6 29 -17 33 -24 4 -7 15
-13 23 -13 10 0 14 -8 12 -22 -3 -20 -8 -23 -43 -20 -22 2 -43 8 -46 14 -4 5
-15 8 -25 5 -17 -4 -17 -6 4 -12 12 -4 22 -11 22 -15 0 -4 12 -11 27 -15 21
-5 24 -8 12 -16 -10 -6 -6 -9 15 -9 41 0 96 -21 96 -37 0 -15 -12 -21 -49 -26
-14 -2 -27 -10 -29 -17 -3 -8 0 -10 8 -5 7 4 27 11 45 15 31 7 33 6 38 -24 2
-17 3 -32 2 -34 -6 -7 -54 11 -49 19 7 13 -10 11 -23 -2 -8 -8 -15 -5 -25 10
-10 14 -21 19 -31 15 -9 -3 -24 1 -32 10 -20 20 -31 20 -39 1 -7 -20 -32 -18
-81 5 -53 25 -66 14 -18 -16 21 -13 31 -24 24 -24 -23 0 -1 -15 50 -34 51 -18
116 -76 86 -76 -14 0 -16 -6 -11 -25 6 -23 3 -25 -25 -25 -23 0 -31 5 -32 18
0 10 -3 12 -6 5 -2 -7 -12 -13 -21 -13 -23 0 -2 -17 28 -23 14 -2 5 -5 -22 -6
-59 -1 -64 -21 -5 -22 47 -1 155 -26 120 -28 -12 0 -24 -5 -28 -11 -3 -5 -12
-7 -19 -4 -7 3 -19 -2 -26 -11 -7 -8 -25 -15 -41 -15 -16 0 -29 -4 -29 -9 0
-12 50 -20 84 -14 21 4 27 3 22 -5 -4 -7 -16 -12 -26 -12 -10 0 -21 -4 -24 -9
-3 -4 31 -11 75 -14 44 -3 86 -11 95 -17 14 -12 15 -61 1 -60 -4 0 -13 0 -19
0 -10 0 -10 2 0 8 9 6 0 12 -26 20 -56 17 -72 15 -66 -5 4 -13 0 -11 -13 5
-14 17 -28 23 -49 21 -41 -3 -111 18 -118 37 -11 30 -6 44 17 45 14 0 17 2 7
6 -8 3 -21 13 -28 21 -10 14 -16 14 -32 4 -17 -11 -20 -10 -20 8 0 13 -7 20
-20 20 -12 0 -31 6 -43 14 -30 19 -67 29 -67 19 0 -5 14 -17 31 -27 36 -21 99
-78 99 -89 0 -4 -12 1 -27 12 -31 23 -83 38 -83 25 0 -5 15 -15 33 -23 36 -15
140 -63 145 -67 2 -1 -2 -12 -8 -24 l-11 -21 -18 23 c-14 17 -22 20 -32 11 -8
-6 -22 -7 -34 -2 -32 12 -67 11 -63 -3 3 -7 13 -15 24 -16 30 -6 41 -22 15
-22 -12 0 -19 -4 -16 -10 3 -5 26 -10 50 -10 54 0 185 -47 185 -66 0 -8 7 -14
15 -14 7 0 18 -6 22 -14 4 -8 17 -15 27 -17 11 -2 21 -10 24 -17 2 -7 -2 -10
-12 -6 -9 3 -16 2 -16 -4 0 -5 7 -12 15 -16 8 -3 15 -11 14 -18 0 -10 -2 -10
-6 0 -4 10 -8 10 -19 1 -10 -8 -14 -8 -14 0 0 17 -38 13 -48 -5 -7 -13 -13
-14 -30 -5 -25 13 -72 15 -72 2 0 -5 6 -12 13 -14 7 -3 5 -6 -5 -6 -10 -1 -18
-6 -18 -11 0 -7 18 -8 50 -4 47 6 50 5 50 -16 0 -23 0 -23 20 -5 20 18 22 18
75 0 30 -10 55 -22 55 -27 0 -5 -9 -4 -19 2 -11 5 -27 10 -35 10 -22 0 -20
-20 2 -21 14 0 14 -2 -3 -9 -17 -7 -16 -9 10 -9 34 -1 49 -9 57 -32 12 -33 -6
-40 -48 -18 -48 25 -74 31 -74 18 0 -7 -12 -8 -31 -4 -21 5 -34 3 -39 -5 -10
-16 -70 -20 -91 -7 -15 10 -15 12 5 29 20 18 20 19 1 16 -11 -1 -26 1 -33 6
-9 5 -18 1 -27 -10 -14 -18 -14 -18 -15 4 0 12 -4 22 -10 22 -5 0 -10 -10 -10
-22 0 -13 -4 -18 -8 -13 -15 22 -65 47 -84 42 -12 -3 -18 -1 -15 6 2 7 16 13
30 15 15 2 27 8 27 13 0 5 -6 9 -12 8 -21 -3 -48 12 -48 27 0 8 -4 14 -10 14
-5 0 -10 -5 -10 -10 0 -14 -59 -6 -95 14 -16 9 -36 16 -42 16 -20 0 -15 -18 7
-25 11 -3 20 -10 20 -15 0 -4 12 -13 28 -19 57 -24 106 -59 63 -46 -16 5 -26
3 -32 -6 -15 -24 -10 -31 16 -25 18 5 25 2 25 -7 0 -8 17 -18 42 -23 48 -10
60 -29 23 -36 -14 -3 -25 -2 -25 2 0 4 -14 10 -30 12 -35 5 -63 -18 -41 -32 8
-4 10 -13 7 -19 -4 -7 1 -11 13 -11 11 0 22 -4 25 -9 3 -4 18 -6 32 -3 23 4
26 2 22 -15 -5 -19 -3 -20 26 -12 64 19 136 4 136 -28 0 -6 19 -13 43 -17 23
-4 63 -18 89 -31 26 -14 52 -25 58 -25 14 0 12 27 -2 33 -7 2 -10 8 -6 12 4 4
14 3 22 -4 8 -6 27 -9 42 -7 29 6 84 -12 84 -26 0 -5 -11 -8 -25 -8 -16 0 -25
6 -25 15 0 20 -19 19 -27 -1 -3 -8 -12 -13 -19 -10 -8 3 -14 1 -14 -4 0 -6
-16 -10 -35 -10 -19 0 -35 -4 -35 -10 0 -5 -4 -10 -10 -10 -5 0 -7 6 -4 14 4
10 -2 12 -20 9 -16 -3 -23 -10 -19 -19 6 -16 -22 -20 -32 -4 -3 6 -17 7 -29 4
-15 -3 -29 1 -40 12 -11 10 -20 13 -24 7 -4 -5 -34 -8 -67 -7 -69 2 -105 -4
-105 -18 0 -5 9 -7 19 -3 11 3 22 1 26 -5 3 -5 18 -10 33 -10 21 0 24 -2 12
-10 -13 -9 -13 -11 0 -20 10 -7 11 -10 2 -10 -20 0 -72 -52 -72 -72 0 -25 -36
-24 -52 2 -7 11 -18 20 -25 20 -7 0 -13 5 -13 10 0 6 -7 10 -16 10 -8 0 -12
-4 -9 -10 4 -6 -5 -10 -20 -10 -14 0 -28 7 -31 15 -4 8 -11 12 -16 9 -6 -4
-14 -1 -18 6 -6 10 -13 9 -31 -3 -20 -14 -20 -17 -6 -23 10 -3 26 -4 37 -1 17
4 18 2 9 -14 -11 -21 -10 -22 51 -37 l35 -8 -42 -7 c-30 -5 -43 -12 -43 -23 0
-11 6 -15 20 -11 11 3 18 1 14 -4 -3 -5 6 -9 20 -9 28 0 29 -1 20 -24 -3 -9
-17 -16 -30 -16 -17 0 -24 -6 -24 -20 0 -15 7 -20 24 -20 36 0 39 -14 9 -40
-21 -18 -24 -25 -13 -28 8 -3 18 -10 22 -17 4 -7 35 -15 68 -19 61 -7 87 -28
29 -24 -19 2 -34 -2 -36 -9 -3 -8 4 -13 16 -13 12 0 21 -4 21 -9 0 -5 -6 -9
-12 -8 -42 1 -60 -5 -65 -22 -7 -27 -38 -23 -72 9 -32 30 -36 31 -123 38 -47
3 -68 1 -68 -7 0 -6 5 -11 10 -11 6 0 10 -4 10 -10 0 -5 -12 -10 -26 -10 -14
0 -23 -4 -19 -10 3 -5 2 -10 -3 -10 -5 0 -12 9 -15 20 -6 23 -27 27 -27 5 0
-10 -10 -15 -34 -15 -19 0 -38 -4 -41 -10 -3 -5 -28 -10 -54 -10 -44 0 -49 2
-53 25 -5 25 16 37 24 13 2 -6 10 -8 17 -4 9 6 9 11 0 22 -9 11 -8 14 2 15 54
1 100 9 116 18 16 9 14 10 -12 11 -16 0 -37 4 -45 10 -10 6 1 11 39 16 34 4
49 10 42 17 -10 10 -85 12 -101 2 -6 -4 -18 -1 -26 6 -11 9 -18 8 -34 -6 -24
-22 -38 -13 -19 12 12 16 12 16 -8 0 -20 -18 -22 -18 -33 0 -8 13 -13 14 -16
6 -6 -14 -24 -18 -24 -5 0 14 70 45 100 44 17 0 28 3 25 8 -6 10 19 20 53 20
15 0 34 5 42 10 11 7 12 10 2 10 -8 0 -12 9 -10 22 2 16 12 24 33 28 17 3 26
8 20 11 -11 7 -28 5 -60 -6 -17 -6 -17 -4 4 14 13 12 34 21 47 21 13 0 24 5
24 10 0 6 7 10 15 10 8 0 15 5 15 10 0 6 7 10 15 10 8 0 15 5 15 11 0 5 -4 8
-9 5 -9 -6 -82 -18 -118 -20 -13 0 -23 -6 -23 -13 0 -7 -16 -15 -35 -19 -19
-3 -35 -10 -35 -15 0 -5 -7 -9 -15 -9 -30 0 -14 19 21 26 43 8 52 26 27 51
-16 16 -30 19 -76 15 -47 -3 -58 -1 -63 13 -9 22 12 35 59 35 20 0 37 5 37 10
0 6 -5 10 -11 10 -6 0 -9 10 -7 22 2 17 17 28 56 44 61 24 79 39 39 32 -15 -3
-29 -2 -32 2 -5 8 24 24 80 44 33 12 36 15 15 16 -25 1 -25 1 -2 10 27 12 29
24 2 15 -28 -9 -25 -1 13 35 20 21 25 28 11 22 -11 -6 -35 -25 -52 -43 -18
-18 -35 -30 -38 -26 -4 4 -13 2 -20 -4 -9 -7 -18 -6 -33 3 -15 9 -24 9 -31 2
-8 -8 -4 -13 14 -18 27 -7 33 -29 17 -55 -7 -11 -13 -11 -38 1 -17 8 -44 13
-62 10 -31 -4 -31 -5 -15 -23 9 -11 12 -19 6 -19 -6 0 -13 4 -17 10 -3 5 -12
7 -20 4 -10 -4 -12 0 -8 15 9 34 30 44 80 38 43 -5 46 -4 28 9 -10 8 -30 14
-44 15 -14 0 -35 4 -46 9 -18 7 -19 8 -2 15 17 7 32 5 72 -10 16 -7 18 -6 8 6
-20 20 -16 26 22 33 21 4 35 13 35 21 0 8 5 15 10 15 6 0 10 4 10 9 0 5 -18 7
-40 4 -27 -4 -40 -2 -40 6 0 8 -6 7 -16 -3 -8 -9 -19 -16 -24 -16 -5 0 -16 -7
-25 -16 -14 -14 -20 -15 -41 -4 l-25 14 33 19 c18 11 56 35 84 53 28 19 60 34
72 34 12 0 22 5 22 11 0 6 -9 9 -20 6 -11 -3 -18 -1 -14 4 3 5 16 9 28 9 14 0
30 10 40 25 9 14 12 25 7 25 -5 0 -11 -5 -13 -11 -5 -15 -51 -19 -88 -9 -22 6
-30 5 -34 -7 -4 -9 -13 -13 -22 -9 -9 3 -21 3 -27 -1 -24 -15 -57 -14 -57 1 0
19 31 36 64 36 14 0 26 5 26 10 0 14 -57 13 -66 -1 -4 -8 -10 -7 -18 1 -15 16
19 40 57 40 15 0 36 8 45 17 16 15 15 16 -16 10 -40 -8 -45 14 -6 31 33 16 21
35 -18 27 -27 -6 -29 -5 -19 13 6 10 23 24 38 31 20 8 28 18 28 36 0 14 -1 25
-2 25 -1 0 -14 -11 -28 -25 -23 -24 -26 -25 -24 -9 2 13 -26 23 -37 13 -8 -6
-13 -3 -17 12 -4 16 1 24 26 35 22 10 25 14 9 10 -29 -6 -36 12 -24 58 8 29 8
36 -4 36 -10 0 -14 14 -14 57 0 31 -3 53 -6 50 -4 -4 -6 -38 -5 -76 l2 -70
-46 20 c-63 28 -67 18 -5 -11 52 -24 67 -42 28 -33 -22 6 -22 5 4 -23 22 -24
25 -33 16 -49 -17 -31 -17 -31 -44 0 l-24 30 6 -27 c5 -24 3 -28 -15 -28 -12
0 -30 5 -41 10 -11 6 -29 15 -41 21 -46 23 -27 -2 28 -37 32 -20 52 -39 45
-42 -10 -3 -10 -7 0 -20 11 -14 10 -15 -7 -9 -16 6 -15 3 5 -13 14 -11 28 -20
33 -20 4 0 7 -7 7 -15 0 -17 -55 -21 -65 -5 -3 6 -12 10 -18 9 -17 0 30 -31
77 -51 26 -10 40 -22 40 -32 -1 -9 2 -16 7 -16 5 0 9 -9 9 -20 0 -16 -6 -19
-31 -16 -17 1 -34 8 -38 15 -4 7 -14 11 -22 9 -9 -2 -13 4 -12 17 1 11 0 14
-3 8 -3 -7 -12 -13 -20 -13 -8 0 -14 -4 -14 -10 0 -15 -24 -12 -46 6 -18 15
-18 15 3 5 30 -15 33 -14 33 10 0 11 -4 18 -9 14 -5 -3 -16 2 -24 10 -20 20
-38 19 -30 -1 3 -9 0 -20 -7 -24 -9 -6 -7 -11 9 -19 12 -7 19 -16 16 -21 -3
-4 9 -13 27 -19 71 -25 100 -92 39 -90 l-26 0 25 11 c17 7 20 12 11 15 -7 3
-23 -4 -34 -16 -16 -16 -18 -21 -7 -22 8 -1 4 -4 -10 -8 -21 -7 -17 -9 28 -15
33 -5 52 -12 49 -20 -2 -6 -9 -11 -15 -11 -5 0 -14 -3 -18 -7 -4 -5 -16 -8
-26 -8 -35 0 -17 -20 20 -21 20 -1 29 -3 20 -6 -34 -9 -18 -23 26 -23 24 0 51
-3 60 -6 19 -7 21 -40 4 -50 -6 -4 -8 -3 -5 3 7 10 -39 36 -51 29 -12 -7 -125
14 -139 26 -19 15 -16 38 4 38 14 0 13 3 -5 16 -12 8 -27 12 -32 9 -6 -3 -10
-2 -10 3 0 6 -11 13 -25 16 -16 4 -27 16 -32 34 -5 15 -8 119 -8 232 0 178 3
219 23 308 73 327 225 601 456 820 248 235 522 365 896 425 80 13 346 6 452
-12z m-1709 -172 c226 -158 307 -222 307 -244 0 -6 -18 -29 -40 -50 l-40 -39
-62 13 c-35 7 -71 20 -80 28 -9 8 -77 99 -149 202 -73 102 -144 201 -157 219
-13 17 -21 32 -18 32 4 0 112 -73 239 -161z m1500 -492 c3 -7 -1 -20 -7 -30
-18 -23 -39 -2 -25 25 11 21 25 23 32 5z m-105 -16 c3 -8 -1 -12 -9 -9 -7 2
-15 10 -17 17 -3 8 1 12 9 9 7 -2 15 -10 17 -17z m40 -24 c2 -12 -1 -15 -12
-11 -19 7 -22 38 -3 32 6 -3 13 -12 15 -21z m83 -20 c-8 -8 -11 -5 -11 9 0 27
14 41 18 19 2 -9 -1 -22 -7 -28z m39 33 c0 -5 -5 -10 -11 -10 -5 0 -7 5 -4 10
3 6 8 10 11 10 2 0 4 -4 4 -10z m-80 -71 c0 -11 -4 -17 -10 -14 -5 3 -10 13
-10 21 0 8 5 14 10 14 6 0 10 -9 10 -21z m70 12 c0 -6 -4 -13 -10 -16 -5 -3
-10 1 -10 9 0 9 5 16 10 16 6 0 10 -4 10 -9z m-1965 -75 c286 -72 354 -91 368
-105 7 -7 7 -22 -3 -50 -18 -56 -23 -61 -66 -71 -96 -23 -99 -21 -332 136
-239 162 -235 159 -207 151 11 -3 119 -31 240 -61z m1869 6 c-7 -4 -14 -16
-17 -27 -4 -15 -5 -14 -6 8 -1 20 4 27 17 27 11 0 13 -3 6 -8z m31 -40 c0 -18
-20 -15 -23 4 -3 10 1 15 10 12 7 -3 13 -10 13 -16z m-2815 -46 c80 -1 139 6
245 28 151 31 236 32 290 3 17 -8 62 -39 100 -67 152 -114 271 -147 492 -138
l119 5 -24 -96 c-13 -53 -27 -99 -31 -104 -13 -14 -165 14 -233 43 -37 15
-116 57 -175 93 -111 66 -206 117 -220 117 -4 0 15 -13 42 -28 28 -15 95 -58
150 -96 167 -113 271 -155 384 -156 l54 0 -7 -52 c-3 -29 -6 -77 -6 -107 l0
-54 -75 7 c-100 9 -218 40 -271 71 -40 24 -68 50 -239 232 -107 114 -120 118
-365 118 -203 0 -205 0 -260 27 -53 27 -230 171 -237 194 -2 7 31 1 79 -14 64
-19 107 -25 188 -26z m5661 20 c100 -25 176 -54 147 -55 -10 -1 -18 -5 -18
-11 0 -5 -14 -10 -31 -10 -96 0 -247 -67 -404 -180 -175 -126 -209 -135 -376
-100 -119 25 -206 25 -302 1 -80 -21 -207 -76 -256 -110 -16 -12 -33 -21 -38
-21 -9 0 -47 189 -40 197 2 2 31 13 63 25 80 29 224 34 379 14 147 -20 267
-20 328 -2 26 8 92 42 148 77 56 34 129 73 163 85 34 13 54 23 46 23 -27 1
-131 -47 -215 -98 -45 -28 -102 -58 -126 -67 -62 -23 -184 -21 -369 6 -178 25
-256 22 -360 -14 l-67 -23 -31 95 c-17 52 -29 99 -26 103 10 16 181 62 249 67
91 6 157 -11 320 -84 118 -53 137 -59 200 -59 67 0 78 4 220 72 217 104 242
109 396 69z m-2731 -161 c11 -13 8 -15 -18 -15 -17 0 -36 -2 -44 -3 -7 -2 -10
-2 -5 0 4 3 7 11 7 19 0 19 44 18 60 -1z m80 1 c0 -11 -19 -15 -25 -6 -3 5 1
10 9 10 9 0 16 -2 16 -4z m-195 -46 c0 -26 -35 -53 -42 -32 -3 6 -11 12 -20
12 -8 0 -13 6 -10 13 2 6 18 12 35 12 32 0 42 9 22 18 -6 3 -5 4 2 3 7 -2 13
-13 13 -26z m110 -10 c-10 -11 -29 -20 -42 -20 -12 0 -23 -4 -23 -10 0 -5 -4
-10 -10 -10 -11 0 -14 43 -3 53 3 4 27 7 51 7 44 0 45 0 27 -20z m-140 -100
c3 -6 -1 -7 -9 -4 -18 7 -21 14 -7 14 6 0 13 -4 16 -10z m-10 -21 c11 -17 0
-20 -21 -4 -17 13 -17 14 -2 15 9 0 20 -5 23 -11z m5 -39 c11 -7 7 -10 -17
-10 -25 0 -33 -4 -33 -18 0 -11 -8 -18 -22 -19 -13 0 -17 1 -10 4 6 3 12 16
12 29 0 20 5 24 28 24 15 0 34 -5 42 -10z m38 -46 c3 -15 1 -16 -9 -7 -9 9
-18 9 -32 2 -15 -9 -18 -8 -14 3 2 7 10 12 16 11 6 -2 11 2 11 8 0 18 25 4 28
-17z m1930 -89 c131 -20 244 -39 252 -42 8 -3 -104 -30 -250 -59 -208 -42
-276 -53 -317 -48 l-53 6 0 59 0 59 47 30 c26 17 55 30 66 30 10 0 125 -16
255 -35z m-3207 -38 c-16 -16 -26 0 -10 19 9 11 15 12 17 4 2 -6 -1 -17 -7
-23z m25 -13 c-4 -9 -9 -15 -11 -12 -3 3 -3 13 1 22 4 9 9 15 11 12 3 -3 3
-13 -1 -22z m2514 19 c-1 -18 -18 -35 -24 -24 -4 6 -4 16 -1 21 7 12 25 13 25
3z m-2580 -13 c0 -5 -2 -10 -4 -10 -3 0 -8 5 -11 10 -3 6 -1 10 4 10 6 0 11
-4 11 -10z m2530 -10 c0 -5 -4 -10 -10 -10 -5 0 -10 5 -10 10 0 6 5 10 10 10
6 0 10 -4 10 -10z m70 1 c0 -6 -4 -13 -10 -16 -5 -3 -10 1 -10 9 0 9 5 16 10
16 6 0 10 -4 10 -9z m-2600 -22 c0 -4 -7 -6 -15 -3 -8 4 -15 10 -15 15 0 4 7
6 15 3 8 -4 15 -10 15 -15z m2526 -17 c-4 -3 -14 2 -24 12 -16 18 -16 18 6 6
13 -6 21 -14 18 -18z m-1236 -42 c0 -16 -4 -30 -10 -30 -5 0 -10 14 -10 30 0
17 5 30 10 30 6 0 10 -13 10 -30z m-1710 4 c104 -10 100 -7 100 -74 0 -58 -1
-60 -38 -85 l-39 -25 -239 35 c-131 20 -278 41 -327 47 -48 6 -86 13 -84 15 2
1 111 25 243 53 170 35 252 48 284 44 25 -3 70 -7 100 -10z m1640 12 c0 -3 -4
-8 -10 -11 -5 -3 -10 -1 -10 4 0 6 5 11 10 11 6 0 10 -2 10 -4z m30 -11 c0 -8
-4 -15 -10 -15 -5 0 -10 7 -10 15 0 8 5 15 10 15 6 0 10 -7 10 -15z m170 2 c0
-7 -9 -13 -20 -14 -20 -2 -26 8 -13 20 11 12 33 8 33 -6z m-1394 -17 c8 0 14
-4 14 -10 0 -5 -4 -10 -8 -10 -12 0 -32 22 -31 35 0 5 3 4 6 -2 2 -7 11 -13
19 -13z m72 8 c-2 -6 -10 -13 -16 -14 -7 -1 -8 0 -2 3 5 2 8 9 4 14 -3 5 0 9
6 9 7 0 10 -5 8 -12z m1392 -8 c0 -5 -9 -10 -21 -10 -11 0 -17 5 -14 10 3 6
13 10 21 10 8 0 14 -4 14 -10z m-143 -16 c-3 -3 -12 -4 -19 -1 -8 3 -5 6 6 6
11 1 17 -2 13 -5z m1218 -4 c3 -5 2 -10 -4 -10 -5 0 -13 5 -16 10 -3 6 -2 10
4 10 5 0 13 -4 16 -10z m505 -27 c142 -28 179 -55 390 -280 109 -116 114 -118
355 -119 218 0 245 -5 328 -62 55 -39 179 -153 173 -160 -3 -3 -13 1 -23 9
-14 12 -16 12 -8 0 6 -11 4 -13 -9 -8 -128 50 -271 53 -471 13 -209 -42 -241
-36 -376 61 -166 120 -265 149 -482 141 -127 -5 -128 -4 -123 16 3 12 13 56
23 99 l16 77 44 0 c97 0 231 -54 387 -155 195 -126 290 -156 426 -134 47 8
132 14 190 13 108 -1 185 -21 293 -75 20 -11 37 -17 37 -14 0 8 -94 53 -160
75 -95 32 -192 40 -318 25 -182 -21 -240 -3 -474 147 -152 97 -231 128 -337
135 l-84 6 7 66 c3 36 6 85 6 109 l0 43 58 -6 c31 -4 91 -14 132 -22z m-1693
-51 l22 -7 -24 -11 c-18 -9 -24 -9 -22 0 1 6 -4 10 -10 9 -7 -2 -13 2 -13 7 0
11 13 11 47 2z m1193 -19 c0 -16 -4 -23 -8 -17 -4 5 -17 10 -29 10 -34 -1 -32
18 2 25 17 4 31 7 33 8 1 0 2 -11 2 -26z m-2462 -22 c10 -6 8 -10 -9 -14 -26
-7 -34 -3 -24 12 7 13 15 14 33 2z m1332 -5 c0 -11 -19 -15 -25 -6 -3 5 1 10
9 10 9 0 16 -2 16 -4z m1190 -18 c-25 -9 -36 -5 -26 10 3 6 16 8 28 4 l22 -5
-24 -9z m-2935 -93 c8 -54 15 -102 15 -106 0 -5 -30 -18 -67 -30 -86 -27 -210
-28 -387 -4 -77 10 -164 16 -220 13 -102 -4 -138 -18 -286 -110 -136 -85 -265
-115 -430 -101 l-85 7 79 13 c116 20 212 65 344 159 202 145 262 164 407 129
104 -25 202 -29 279 -11 87 21 194 64 271 109 33 19 61 34 63 33 1 -2 9 -47
17 -101z m337 63 c-5 -5 -20 -7 -32 -3 -24 8 -17 21 15 27 23 4 32 -9 17 -24z
m1468 22 c0 -5 -2 -10 -4 -10 -3 0 -8 5 -11 10 -3 6 -1 10 4 10 6 0 11 -4 11
-10z m-1389 -14 c-20 -24 -51 -27 -51 -5 0 15 7 19 31 19 26 0 29 -3 20 -14z
m1253 -1 c-10 -8 -28 -14 -39 -14 -15 0 -13 3 10 14 40 18 53 18 29 0z m83 9
c-3 -3 -12 -4 -19 -1 -8 3 -5 6 6 6 11 1 17 -2 13 -5z m1113 -28 c-13 -13 -18
-13 -34 -1 -18 14 -18 15 5 24 31 11 49 -3 29 -23z m81 10 c-15 -18 -49 -27
-57 -15 -10 16 7 29 38 29 25 0 28 -3 19 -14z m-1141 -6 c0 -5 -4 -10 -10 -10
-5 0 -10 5 -10 10 0 6 5 10 10 10 6 0 10 -4 10 -10z m965 -29 c-8 -13 -35 -15
-35 -2 0 5 8 11 18 13 21 5 26 2 17 -11z m-1489 -26 c1 -8 -1 -17 -5 -19 -4
-3 -8 7 -9 21 -2 27 10 25 14 -2z m141 -9 c-8 -18 -15 -22 -24 -15 -16 14 -5
39 17 39 16 0 17 -3 7 -24z m-1110 -1 c0 -8 -4 -12 -9 -9 -5 3 -6 10 -3 15 9
13 12 11 12 -6z m1413 -11 c0 -8 -4 -12 -10 -9 -5 3 -10 13 -10 21 0 8 5 12
10 9 6 -3 10 -13 10 -21z m-273 -6 c-3 -8 -6 -5 -6 6 -1 11 2 17 5 13 3 -3 4
-12 1 -19z m1390 7 c0 -8 -4 -15 -9 -15 -10 0 -11 14 -1 23 9 10 10 9 10 -8z
m-1717 -4 c0 -5 -9 -7 -20 -4 -11 3 -20 7 -20 9 0 2 9 4 20 4 11 0 20 -4 20
-9z m-1050 -46 c0 -6 11 -18 25 -25 25 -13 35 -40 14 -40 -5 0 -7 5 -3 11 4 7
-3 10 -21 7 -34 -4 -59 26 -35 42 13 9 13 12 -2 21 -10 5 -18 15 -18 21 0 6 9
3 20 -7 11 -10 20 -23 20 -30z m228 28 c-10 -2 -18 -9 -18 -14 0 -6 -4 -7 -10
-4 -19 12 -10 25 18 24 16 -1 20 -3 10 -6z m1077 -13 c-28 -12 -45 -12 -45 0
0 6 15 10 33 9 27 0 29 -2 12 -9z m1477 -7 c24 -22 23 -28 -7 -28 -23 0 -24 1
-8 13 15 11 14 12 -11 12 -15 0 -25 -4 -21 -10 3 -5 1 -10 -4 -10 -6 0 -11 9
-11 20 0 25 36 27 62 3z m-2517 -3 c3 -6 -4 -10 -17 -10 -18 0 -20 2 -8 10 19
12 18 12 25 0z m-290 -155 c14 -47 28 -92 31 -99 8 -21 -139 -65 -237 -73
-108 -8 -153 4 -349 94 -86 40 -129 53 -172 53 -53 0 -147 -33 -245 -85 -103
-56 -189 -85 -250 -85 -47 0 -160 25 -238 53 -37 13 -32 14 87 9 185 -7 272
17 436 120 135 86 221 98 452 63 170 -26 288 -23 375 8 39 14 73 25 77 26 4 1
18 -37 33 -84z m3055 65 c0 -5 -4 -10 -10 -10 -5 0 -10 5 -10 10 0 6 5 10 10
10 6 0 10 -4 10 -10z m-1435 -10 c3 -5 -1 -10 -9 -10 -9 0 -16 5 -16 10 0 6 4
10 9 10 6 0 13 -4 16 -10z m-1519 -16 c22 -9 41 -20 44 -24 3 -4 21 -17 40
-29 22 -13 28 -21 18 -21 -11 0 -15 -5 -12 -14 4 -11 0 -13 -14 -9 -11 2 -23
0 -26 -5 -4 -6 -22 -8 -43 -5 -26 4 -34 3 -29 -5 4 -7 1 -12 -7 -12 -8 0 -21
24 -31 58 -10 31 -21 63 -23 70 -7 17 36 15 83 -4z m2922 -75 l-23 -64 -48 -3
c-37 -2 -49 1 -54 13 -8 22 13 35 60 35 42 0 45 5 17 30 -20 17 -20 18 22 39
23 11 43 19 45 17 2 -2 -7 -32 -19 -67z m-2751 9 c-3 -7 -5 -2 -5 12 0 14 2
19 5 13 2 -7 2 -19 0 -25z m93 22 c0 -5 -4 -10 -10 -10 -5 0 -10 5 -10 10 0 6
5 10 10 10 6 0 10 -4 10 -10z m2440 -21 c0 -11 -4 -18 -10 -14 -5 3 -7 12 -3
20 7 21 13 19 13 -6z m90 11 c0 -5 -4 -10 -10 -10 -5 0 -10 5 -10 10 0 6 5 10
10 10 6 0 10 -4 10 -10z m-1583 -6 c-3 -3 -12 -4 -19 -1 -8 3 -5 6 6 6 11 1
17 -2 13 -5z m47 -9 c-7 -17 -20 -20 -28 -6 -4 5 0 12 6 14 23 9 28 7 22 -8z
m1833 -15 c24 -16 46 -30 48 -30 9 0 416 -252 413 -255 -2 -2 -100 16 -218 40
-207 42 -218 46 -300 94 -47 28 -91 54 -99 59 -12 7 -13 14 -3 38 6 16 16 41
21 57 9 23 16 27 52 27 29 0 54 -9 86 -30z m-1960 14 c-3 -3 -12 -4 -19 -1 -8
3 -5 6 6 6 11 1 17 -2 13 -5z m444 -20 c8 -10 8 -14 0 -14 -6 0 -11 5 -11 10
0 6 -15 10 -32 10 -23 0 -29 3 -19 9 16 11 47 3 62 -15z m-374 -18 c-4 -10 5
-14 33 -14 22 0 49 -7 62 -14 l23 -13 -30 -3 c-16 -2 -34 -10 -38 -18 -11 -19
-37 -18 -37 1 0 8 -9 15 -20 15 -16 0 -19 -5 -16 -25 3 -18 0 -25 -12 -26 -37
-3 -43 -4 -50 -15 -4 -7 -15 -8 -29 -3 -29 11 -29 25 -1 32 29 8 20 16 -19 19
-18 1 -29 6 -27 10 3 5 -2 11 -10 14 -23 9 -20 24 4 24 11 0 20 5 20 11 0 7
12 10 33 6 25 -4 86 2 116 12 2 0 1 -5 -2 -13z m434 1 c27 -21 11 -35 -33 -31
-49 5 -77 24 -35 24 15 0 27 5 27 10 0 14 21 12 41 -3z m-281 -7 c0 -5 -5 -10
-11 -10 -5 0 -7 5 -4 10 3 6 8 10 11 10 2 0 4 -4 4 -10z m160 -9 c0 -6 -4 -13
-10 -16 -5 -3 -10 1 -10 9 0 9 5 16 10 16 6 0 10 -4 10 -9z m-1293 -7 c-3 -3
-12 -4 -19 -1 -8 3 -5 6 6 6 11 1 17 -2 13 -5z m-187 -14 c0 -7 6 -7 18 -1 26
14 66 3 52 -14 -8 -10 -3 -15 20 -23 28 -10 39 -30 24 -45 -4 -3 -16 -1 -28 5
-26 15 -99 18 -107 5 -8 -11 -39 44 -39 68 0 10 10 15 30 15 17 0 30 -5 30
-10z m1404 2 c3 -5 0 -9 -7 -9 -7 0 -20 -4 -29 -8 -11 -4 -18 -3 -18 3 0 9 15
16 42 21 4 0 9 -3 12 -7z m1326 -2 c18 -12 2 -12 -25 0 -13 6 -15 9 -5 9 8 0
22 -4 30 -9z m-1740 -30 c0 -5 -6 -9 -12 -7 -7 1 -12 -4 -11 -10 3 -16 -35
-26 -73 -20 -23 3 -20 4 12 6 33 1 43 5 47 21 5 20 37 29 37 10z m1780 0 c0
-5 -2 -10 -4 -10 -3 0 -8 5 -11 10 -3 6 -1 10 4 10 6 0 11 -4 11 -10z m-2830
-64 c24 -61 20 -77 -37 -144 l-28 -34 -260 -44 c-143 -24 -264 -43 -269 -41
-5 2 98 63 230 137 131 73 257 144 279 157 22 12 45 23 51 23 7 0 22 -24 34
-54z m1495 44 c3 -5 1 -10 -4 -10 -6 0 -11 5 -11 10 0 6 2 10 4 10 3 0 8 -4
11 -10z m175 1 c0 -11 -31 -24 -39 -16 -3 3 1 10 9 15 19 12 30 12 30 1z
m-760 -11 c0 -5 -7 -10 -16 -10 -8 0 -12 5 -9 10 3 6 10 10 16 10 5 0 9 -4 9
-10z m424 -5 c-4 -8 -13 -15 -20 -15 -12 0 -12 3 -2 15 17 19 29 19 22 0z m51
5 c-3 -5 -11 -10 -16 -10 -6 0 -7 5 -4 10 3 6 11 10 16 10 6 0 7 -4 4 -10z
m45 -10 c-8 -5 -18 -6 -24 -3 -5 4 -1 10 10 13 24 9 34 2 14 -10z m1729 -117
c66 -60 103 -124 156 -273 47 -133 65 -168 107 -209 43 -42 79 -60 213 -105
200 -68 248 -107 335 -276 27 -54 50 -101 50 -103 0 -11 -31 0 -52 19 -99 88
-194 127 -416 169 -208 40 -250 64 -322 185 -103 174 -216 261 -422 325 -49
15 -88 29 -88 32 0 2 17 27 38 56 21 29 46 65 55 80 l18 28 62 -33 c79 -42
149 -112 269 -268 109 -142 180 -213 241 -240 24 -11 95 -32 159 -49 64 -16
131 -37 150 -47 87 -45 184 -125 250 -207 21 -27 38 -45 38 -40 0 4 -27 39
-59 76 -110 127 -219 195 -381 236 -177 46 -226 83 -373 288 -110 153 -185
229 -271 272 -36 19 -66 36 -66 38 0 2 20 44 45 94 l46 90 80 -43 c45 -24 107
-66 138 -95z m-1919 106 c0 -5 -4 -9 -10 -9 -5 0 -10 7 -10 16 0 8 5 12 10 9
6 -3 10 -10 10 -16z m1527 15 c-3 -3 -12 -4 -19 -1 -8 3 -5 6 6 6 11 1 17 -2
13 -5z m-2693 -39 c-4 -8 -10 -12 -15 -9 -11 6 -2 24 11 24 5 0 7 -7 4 -15z
m1614 3 c-3 -7 -15 -13 -28 -13 -13 0 -25 6 -27 13 -3 8 6 12 27 12 21 0 30
-4 28 -12z m-376 -20 c-2 -10 2 -18 8 -18 22 0 8 -19 -21 -29 -26 -9 -29 -8
-20 3 9 11 1 13 -46 12 -32 -1 -63 -5 -69 -9 -7 -4 -11 2 -10 16 1 17 10 24
46 34 65 17 116 13 112 -9z m1292 7 c-4 -8 -10 -12 -15 -9 -11 6 -2 24 11 24
5 0 7 -7 4 -15z m-1224 -5 c8 -5 12 -11 9 -14 -7 -8 -49 5 -49 15 0 12 21 11
40 -1z m-307 -7 c-7 -2 -19 -2 -25 0 -7 3 -2 5 12 5 14 0 19 -2 13 -5z m-163
-13 c0 -5 -5 -10 -11 -10 -5 0 -7 5 -4 10 3 6 8 10 11 10 2 0 4 -4 4 -10z m62
-1 c-15 -6 -30 -5 -40 1 -13 7 -8 9 23 9 35 0 37 -1 17 -10z m75 -5 c-3 -3
-12 -4 -19 -1 -8 3 -5 6 6 6 11 1 17 -2 13 -5z m503 -4 c0 -5 -4 -10 -10 -10
-5 0 -10 5 -10 10 0 6 5 10 10 10 6 0 10 -4 10 -10z m1027 4 c-3 -3 -12 -4
-19 -1 -8 3 -5 6 6 6 11 1 17 -2 13 -5z m-985 -36 c-7 -7 -12 -8 -12 -2 0 6 3
14 7 17 3 4 9 5 12 2 2 -3 -1 -11 -7 -17z m-1510 -64 c24 -42 48 -85 55 -97
15 -27 8 -35 -71 -91 -77 -54 -145 -83 -321 -135 -248 -75 -289 -101 -394
-255 -105 -155 -196 -227 -375 -297 -94 -37 -69 -37 34 0 157 58 262 141 358
283 98 146 150 178 392 248 186 53 270 93 344 161 l59 54 36 -44 c20 -24 50
-60 68 -80 l32 -36 -22 -23 c-48 -52 -167 -134 -223 -154 -50 -18 -89 -22
-259 -28 -240 -7 -247 -10 -356 -131 -213 -236 -228 -247 -388 -273 -162 -27
-184 -18 -94 40 97 62 172 147 262 298 131 217 144 228 329 270 155 35 234 78
342 186 47 47 99 106 115 132 17 27 31 48 32 48 1 0 21 -34 45 -76z m912 60
c27 -26 19 -36 -28 -31 -47 5 -66 13 -66 27 0 7 17 12 67 19 6 0 19 -6 27 -15z
m-793 -30 c9 -11 8 -14 -4 -14 -8 0 -17 5 -19 12 -3 7 -9 8 -19 3 -23 -15 -37
-14 -42 4 -3 13 3 16 34 13 21 -2 43 -10 50 -18z m49 6 c0 -5 -4 -10 -10 -10
-5 0 -10 5 -10 10 0 6 5 10 10 10 6 0 10 -4 10 -10z m1550 0 c0 -5 -2 -10 -4
-10 -3 0 -8 5 -11 10 -3 6 -1 10 4 10 6 0 11 -4 11 -10z m878 -4 c23 6 25 4
14 -7 -22 -23 -53 -13 -51 16 0 6 3 4 6 -2 3 -8 14 -11 31 -7z m62 -22 c0 -2
-7 -4 -15 -4 -8 0 -15 4 -15 10 0 5 7 7 15 4 8 -4 15 -8 15 -10z m-1680 2 c0
-3 -4 -8 -10 -11 -5 -3 -10 -1 -10 4 0 6 5 11 10 11 6 0 10 -2 10 -4z m98 -36
c7 -12 8 -20 2 -20 -5 0 -10 5 -10 10 0 6 -5 9 -11 8 -6 -2 -14 3 -16 10 -8
20 21 14 35 -8z m-97 -10 c5 0 9 -6 9 -14 0 -9 -8 -12 -25 -8 -14 2 -25 11
-25 19 0 10 6 13 16 9 9 -3 20 -6 25 -6z m-723 -28 c2 -7 -7 -12 -25 -12 -34
0 -44 7 -37 25 6 16 56 5 62 -13z m1364 8 c19 0 24 -15 9 -24 -5 -4 -12 0 -14
6 -3 8 -6 6 -6 -4 -1 -17 -21 -27 -21 -10 0 4 -3 18 -6 32 -6 21 -4 23 7 13 7
-7 21 -13 31 -13z m-572 -6 c0 -3 -7 -12 -15 -20 -12 -13 -15 -13 -15 -1 0 7
3 17 7 20 8 8 23 9 23 1z m475 -3 c-6 -11 -45 -10 -45 1 0 4 12 8 26 8 14 0
23 -4 19 -9z m950 -1 c-3 -6 5 -10 19 -10 32 0 57 -10 51 -21 -3 -4 -12 -6
-19 -3 -7 3 -16 -2 -19 -10 -4 -9 -11 -16 -17 -16 -6 0 -9 4 -5 9 3 5 0 13 -6
16 -6 4 -13 -2 -16 -14 -3 -12 -9 -21 -13 -21 -4 0 -22 -3 -39 -6 -20 -4 -31
-3 -31 5 0 6 8 11 18 11 9 0 -1 9 -23 18 -48 22 -36 34 45 43 30 3 56 7 58 8
2 0 0 -3 -3 -9z m-1319 -21 c18 -15 18 -25 -2 -33 -8 -3 -13 -2 -10 2 2 4 1
14 -4 22 -7 11 -11 11 -24 1 -19 -16 -46 -7 -46 15 0 13 7 16 36 11 20 -3 42
-11 50 -18z m118 12 c3 -5 -14 -8 -38 -7 -24 0 -42 4 -39 9 6 10 71 9 77 -2z
m103 -5 c3 -3 -5 -6 -19 -6 -15 0 -28 -5 -30 -12 -2 -6 -10 -8 -17 -4 -19 12
6 35 35 31 13 -1 28 -5 31 -9z m133 -16 c0 -5 7 -10 16 -10 9 0 14 -6 12 -12
-8 -22 -50 -15 -59 10 -7 18 -5 22 11 22 11 0 20 -4 20 -10z m65 -10 c-3 -5
-10 -10 -16 -10 -5 0 -9 5 -9 10 0 6 7 10 16 10 8 0 12 -4 9 -10z m-345 -20
c0 -5 8 -11 18 -13 9 -3 4 -5 -13 -5 -16 1 -42 -4 -57 -10 -34 -14 -35 -7 -6
23 20 21 58 24 58 5z m140 16 c0 -3 -4 -8 -10 -11 -5 -3 -10 -1 -10 4 0 6 5
11 10 11 6 0 10 -2 10 -4z m99 -14 c7 -14 5 -21 -12 -32 -20 -12 -21 -11 -9 2
7 9 10 23 6 32 -8 22 3 20 15 -2z m-1212 2 c-3 -3 -12 -4 -19 -1 -8 3 -5 6 6
6 11 1 17 -2 13 -5z m2068 -13 c-3 -6 -14 -10 -23 -10 -15 1 -15 2 1 6 9 2 17
9 17 15 0 6 3 9 6 5 3 -3 3 -10 -1 -16z m-1315 -1 c0 -6 10 -14 22 -19 l23 -8
-23 -7 c-12 -4 -22 -12 -22 -17 0 -5 -7 -9 -16 -9 -14 0 -14 1 0 16 20 20 20
34 1 34 -8 0 -15 5 -15 10 0 6 7 10 15 10 8 0 15 -5 15 -10z m1550 6 c0 -3 -4
-8 -10 -11 -5 -3 -10 -1 -10 4 0 6 5 11 10 11 6 0 10 -2 10 -4z m-1890 -26
c11 -11 16 -20 12 -20 -4 0 -13 5 -20 12 -9 9 -12 9 -12 0 0 -8 -18 -11 -54
-9 -62 2 -62 4 -9 22 51 19 60 18 83 -5z m1492 -2 c-6 -6 -15 -8 -19 -4 -4 4
-1 11 7 16 19 12 27 3 12 -12z m323 12 c3 -5 1 -10 -4 -10 -6 0 -11 5 -11 10
0 6 2 10 4 10 3 0 8 -4 11 -10z m-2215 -10 c0 -5 -6 -10 -14 -10 -8 0 -18 5
-21 10 -3 6 3 10 14 10 12 0 21 -4 21 -10z m717 -6 c4 -13 -115 -35 -123 -22
-3 4 10 8 29 8 22 0 37 6 41 16 7 17 47 16 53 -2z m1550 -11 c-4 -3 -2 -12 4
-20 9 -10 8 -13 -2 -14 -65 -5 -143 13 -109 25 42 14 118 21 107 9z m-2007
-13 c0 -5 -8 -10 -17 -10 -15 0 -16 2 -3 10 19 12 20 12 20 0z m245 1 c27 -6
28 -8 9 -14 -13 -5 -33 -1 -50 8 -32 16 -16 19 41 6z m330 -1 c3 -5 1 -10 -4
-10 -6 0 -11 5 -11 10 0 6 2 10 4 10 3 0 8 -4 11 -10z m970 0 c-3 -5 -13 -10
-21 -10 -8 0 -12 5 -9 10 3 6 13 10 21 10 8 0 12 -4 9 -10z m-710 -10 c3 -5 1
-10 -4 -10 -6 0 -11 5 -11 10 0 6 2 10 4 10 3 0 8 -4 11 -10z m145 4 c0 -10
-33 -33 -47 -34 -7 0 -13 6 -13 14 0 8 6 17 13 19 18 8 47 8 47 1z m490 -3
c-26 -14 -70 -22 -70 -12 0 11 23 18 60 20 18 0 21 -2 10 -8z m293 2 c-7 -2
-19 -2 -25 0 -7 3 -2 5 12 5 14 0 19 -2 13 -5z m-1601 -11 c10 -1 15 -8 12
-15 -3 -9 6 -12 34 -9 30 3 39 0 39 -12 0 -8 -6 -17 -14 -20 -7 -3 -13 -1 -13
4 0 6 -8 10 -17 10 -13 0 -14 -3 -6 -8 9 -6 7 -12 -7 -25 -23 -19 -40 -23 -22
-5 19 19 14 28 -18 28 -30 0 -40 -14 -17 -24 6 -3 -5 -4 -25 -1 -20 3 -39 1
-43 -5 -3 -5 0 -10 7 -10 7 0 30 -5 52 -11 47 -13 37 -29 -20 -31 -21 -1 -54
-10 -72 -20 -30 -16 -35 -17 -54 -3 -17 11 -25 12 -36 3 -10 -9 -15 -9 -21 1
-6 10 -14 10 -28 2 -11 -5 -23 -7 -27 -3 -4 3 -19 7 -34 8 -15 0 -36 5 -47 10
-16 7 -7 11 45 23 36 7 91 14 123 15 38 1 57 5 57 14 0 6 -4 12 -9 12 -12 0
-66 49 -60 54 2 2 19 6 37 9 19 3 36 7 38 9 3 4 110 3 146 0z m1488 -7 c0 -8
9 -15 20 -15 24 0 26 -16 3 -28 -16 -9 -16 -11 0 -27 10 -9 34 -19 54 -21 45
-6 57 -14 20 -14 -30 0 -37 -16 -9 -23 10 -3 7 -5 -10 -6 -15 0 -31 -8 -36
-18 -13 -23 -38 -10 -63 32 -15 25 -28 35 -45 35 -13 0 -24 -4 -24 -9 0 -5 -7
-12 -16 -15 -8 -3 -12 -2 -9 3 3 6 -2 14 -11 19 -21 11 -10 32 17 32 10 0 18
3 18 8 -1 4 0 10 1 15 1 4 3 13 4 20 0 6 17 15 36 18 19 4 38 7 43 8 4 0 7 -6
7 -14z m-840 -5 c0 -5 -13 -10 -30 -10 -16 0 -30 5 -30 10 0 6 14 10 30 10 17
0 30 -4 30 -10z m-90 -10 c0 -5 -4 -10 -10 -10 -5 0 -10 5 -10 10 0 6 5 10 10
10 6 0 10 -4 10 -10z m1068 -7 c2 -9 -7 -13 -27 -13 -30 0 -46 11 -34 24 11
11 56 2 61 -11z m329 9 c11 -7 343 -507 343 -517 0 -14 -317 235 -327 256 -6
13 -38 57 -72 96 -33 40 -61 75 -61 79 0 3 17 25 37 50 36 43 56 52 80 36z
m-1601 -23 c-29 -23 -40 -21 -30 5 3 9 17 16 31 16 l26 0 -27 -21z m978 -1
c-7 -11 -34 -10 -34 1 0 6 9 9 19 8 11 0 17 -5 15 -9z m-81 -5 c-7 -2 -21 -2
-30 0 -10 3 -4 5 12 5 17 0 24 -2 18 -5z m-1068 -20 c-2 -19 -20 -19 -58 -2
-18 8 -16 9 11 5 17 -3 32 -1 32 4 0 6 4 10 9 10 5 0 8 -8 6 -17z m653 -5 c28
0 29 -14 1 -23 -12 -4 -27 -1 -37 8 -9 8 -22 12 -29 10 -6 -2 -15 1 -19 8 -5
9 1 10 27 4 19 -4 44 -8 57 -7z m249 -10 c-3 -8 -6 -5 -6 6 -1 11 2 17 5 13 3
-3 4 -12 1 -19z m646 8 c4 -10 1 -13 -9 -9 -15 6 -19 23 -5 23 5 0 11 -7 14
-14z m-1469 -11 c-4 -8 -10 -12 -15 -9 -14 8 -10 24 6 24 9 0 12 -6 9 -15z
m46 11 c0 -3 -4 -8 -10 -11 -5 -3 -10 -1 -10 4 0 6 5 11 10 11 6 0 10 -2 10
-4z m1023 -3 c-7 -2 -19 -2 -25 0 -7 3 -2 5 12 5 14 0 19 -2 13 -5z m337 -13
c12 -8 11 -10 -7 -10 -13 0 -23 5 -23 10 0 13 11 13 30 0z m-1440 -14 c0 -2
-7 -7 -16 -10 -8 -3 -12 -2 -9 4 6 10 25 14 25 6z m860 -6 c12 -8 9 -10 -12
-10 -15 0 -30 5 -33 10 -8 13 25 13 45 0z m57 4 c-3 -3 -12 -4 -19 -1 -8 3 -5
6 6 6 11 1 17 -2 13 -5z m554 -17 c-10 -9 -11 -8 -5 6 3 10 9 15 12 12 3 -3 0
-11 -7 -18z m-2102 -31 c40 -41 43 -48 39 -83 -13 -91 -20 -98 -274 -276 -131
-91 -240 -165 -242 -162 -6 6 265 387 280 393 4 2 8 8 8 14 0 21 120 156 140
158 3 0 25 -20 49 -44z m553 15 c-5 -38 -50 -61 -68 -36 -12 17 -39 12 -29 -5
4 -7 -26 -1 -85 17 -28 8 52 37 120 44 36 3 65 6 66 7 0 1 -1 -11 -4 -27z
m128 19 c0 -5 -4 -10 -10 -10 -5 0 -10 5 -10 10 0 6 5 10 10 10 6 0 10 -4 10
-10z m165 0 c-3 -5 -10 -10 -16 -10 -5 0 -9 5 -9 10 0 6 7 10 16 10 8 0 12 -4
9 -10z m1320 0 c-3 -5 -13 -10 -21 -10 -8 0 -14 5 -14 10 0 6 9 10 21 10 11 0
17 -4 14 -10z m-1370 -10 c-3 -5 -16 -10 -28 -10 -18 0 -19 2 -7 10 20 13 43
13 35 0z m605 6 c0 -9 -30 -14 -35 -6 -4 6 3 10 14 10 12 0 21 -2 21 -4z m921
-130 c74 -105 82 -138 84 -366 1 -189 2 -197 27 -245 30 -58 60 -89 180 -192
129 -111 161 -158 183 -276 17 -96 28 -218 16 -192 -7 14 -10 15 -11 5 0 -8
-10 3 -22 25 -46 88 -147 191 -248 253 -275 168 -289 183 -325 359 -16 76 -37
143 -60 190 -39 79 -138 192 -230 263 l-56 43 33 20 c18 12 57 37 87 56 l54
35 38 -43 c69 -78 111 -172 169 -376 57 -203 106 -277 248 -374 117 -81 182
-149 236 -251 54 -101 61 -97 10 6 -45 91 -122 177 -229 254 -149 108 -179
157 -244 401 -56 211 -84 274 -159 360 l-40 45 76 66 77 66 28 -31 c16 -18 51
-63 78 -101z m-716 105 c3 -5 1 -12 -5 -16 -5 -3 -10 1 -10 9 0 18 6 21 15 7z
m150 -1 c-3 -5 -11 -10 -16 -10 -6 0 -7 5 -4 10 3 6 11 10 16 10 6 0 7 -4 4
-10z m-895 -4 c0 -9 -30 -14 -35 -6 -4 6 3 10 14 10 12 0 21 -2 21 -4z m570
-10 c0 -7 -9 -16 -20 -19 -25 -6 -26 8 -2 22 22 13 22 13 22 -3z m651 5 c-9
-6 -11 -16 -7 -27 6 -15 4 -16 -5 -7 -6 6 -18 9 -25 6 -8 -3 -14 0 -14 6 0 7
10 16 23 21 29 11 46 12 28 1z m-271 -9 c0 -4 -14 -13 -30 -19 -34 -13 -31 3
4 17 27 11 26 11 26 2z m-1500 -12 c0 -5 -5 -10 -11 -10 -5 0 -7 5 -4 10 3 6
8 10 11 10 2 0 4 -4 4 -10z m1337 4 c-3 -3 -12 -4 -19 -1 -8 3 -5 6 6 6 11 1
17 -2 13 -5z m-1378 -8 c-2 -2 -17 -6 -34 -10 -22 -5 -26 -4 -15 4 14 9 59 15
49 6z m297 -21 c-9 -9 -16 -13 -16 -8 0 12 22 34 28 28 2 -2 -3 -11 -12 -20z
m989 15 c-3 -5 -13 -10 -22 -10 -9 0 -13 -6 -10 -14 3 -8 -1 -20 -9 -27 -13
-11 -14 -9 -8 17 4 16 12 32 18 36 16 11 38 10 31 -2z m-1105 -19 c30 -5 43
-9 28 -10 -50 -2 -29 -20 30 -27 42 -4 62 -12 70 -25 7 -10 11 -19 10 -19 -2
0 -18 4 -36 9 -26 8 -32 7 -32 -5 0 -12 -10 -13 -51 -8 -33 4 -58 2 -74 -6
-20 -11 -26 -10 -40 4 -15 15 -15 16 0 16 9 0 13 5 10 10 -10 17 -37 11 -64
-12 l-26 -23 19 23 c11 12 14 22 8 22 -7 0 -12 5 -12 10 0 6 6 10 13 10 8 0
19 11 25 25 9 20 17 24 39 20 15 -3 53 -9 83 -14z m1170 9 c0 -5 -9 -10 -21
-10 -11 0 -17 5 -14 10 3 6 13 10 21 10 8 0 14 -4 14 -10z m34 -6 c4 -10 1
-14 -6 -12 -15 5 -23 28 -10 28 5 0 13 -7 16 -16z m269 9 c-7 -2 -19 -2 -25 0
-7 3 -2 5 12 5 14 0 19 -2 13 -5z m-1263 -13 c12 -8 9 -10 -12 -10 -16 0 -28
5 -28 10 0 13 20 13 40 0z m1220 -2 c46 -15 49 -21 16 -36 -19 -8 -26 -8 -29
1 -3 9 -9 9 -24 0 -14 -8 -24 -8 -30 -2 -6 6 -30 10 -53 11 -36 0 -40 2 -24
11 18 10 67 24 92 26 7 1 30 -5 52 -11z m-1780 -29 c14 -11 50 -36 80 -56 30
-20 56 -38 58 -39 5 -3 -39 -86 -60 -114 -45 -58 -129 -138 -220 -206 -214
-163 -260 -224 -298 -404 -34 -165 -128 -316 -263 -422 -40 -32 -43 -24 -6 17
30 34 97 167 113 225 8 30 25 114 36 185 16 98 29 146 53 195 30 60 40 70 127
128 120 80 191 149 238 232 42 75 101 224 102 258 0 27 8 27 40 1z m1887 -21
c-3 -8 -6 -5 -6 6 -1 11 2 17 5 13 3 -3 4 -12 1 -19z m-1363 6 c9 -3 14 -10
11 -15 -7 -10 -35 0 -35 12 0 11 3 11 24 3z m866 -18 c0 -16 -18 -31 -27 -22
-8 8 5 36 17 36 5 0 10 -6 10 -14z m-790 -16 c0 -5 -6 -10 -14 -10 -8 0 -18 5
-21 10 -3 6 3 10 14 10 12 0 21 -4 21 -10z m1221 -21 c-13 -11 -34 -19 -47
-19 -13 0 -24 -6 -24 -13 0 -8 -31 -28 -68 -46 -53 -24 -74 -30 -92 -23 -21 8
-20 10 18 16 24 3 45 13 48 21 4 8 17 15 30 15 13 0 24 5 24 10 0 6 -6 10 -12
10 -7 0 6 13 29 28 33 22 51 27 80 24 l37 -5 -23 -18z m-98 10 c-7 -7 -21 -7
-44 -1 l-34 10 45 1 c31 1 41 -2 33 -10z m-263 -9 c0 -5 -7 -10 -15 -10 -8 0
-15 5 -15 10 0 6 7 10 15 10 8 0 15 -4 15 -10z m-1090 -33 c0 -9 39 -5 88 9
17 5 22 2 22 -12 0 -15 2 -16 9 -5 11 17 41 7 41 -14 0 -8 -7 -15 -16 -15 -12
0 -14 -4 -6 -12 5 -8 6 -22 1 -33 -12 -30 -11 -35 8 -28 11 4 14 3 9 -5 -8
-13 -39 -16 -50 -5 -3 4 -16 8 -28 10 -40 6 -233 104 -221 111 18 11 143 10
143 -1z m900 3 c0 -5 -6 -10 -14 -10 -8 0 -18 5 -21 10 -3 6 3 10 14 10 12 0
21 -4 21 -10z m284 1 c3 -4 -5 -13 -18 -19 -21 -9 -23 -8 -19 9 5 19 28 26 37
10z m-658 -51 c36 0 53 -30 35 -59 -7 -12 -14 -10 -36 8 -15 11 -37 21 -49 21
-27 0 -46 18 -40 36 15 49 13 49 42 21 16 -15 37 -27 48 -27z m274 30 c0 -5
12 -10 28 -10 24 -1 23 -2 -13 -15 -45 -16 -49 -15 -40 14 6 21 25 29 25 11z
m-913 -42 c45 -24 83 -47 83 -52 0 -18 -91 -165 -130 -209 -46 -51 -148 -107
-287 -157 -180 -63 -214 -100 -290 -317 -63 -177 -93 -226 -169 -279 -64 -44
-194 -119 -194 -111 0 3 32 31 71 63 130 106 200 219 244 395 48 188 73 222
277 376 160 121 224 187 264 270 16 34 33 62 38 62 5 1 47 -18 93 -41z m456
35 c-7 -2 -19 -2 -25 0 -7 3 -2 5 12 5 14 0 19 -2 13 -5z m622 -3 c3 -5 2 -10
-3 -10 -5 0 -25 -3 -43 -6 -32 -5 -33 -5 -15 10 22 18 52 21 61 6z m-565 -10
c0 -5 -5 -10 -11 -10 -5 0 -7 5 -4 10 3 6 8 10 11 10 2 0 4 -4 4 -10z m350
-10 c0 -5 -7 -10 -15 -10 -8 0 -15 5 -15 10 0 6 7 10 15 10 8 0 15 -4 15 -10z
m320 -14 c0 -11 -19 -15 -25 -6 -3 5 1 10 9 10 9 0 16 -2 16 -4z m340 -39 c12
-29 113 -644 108 -658 -2 -7 -43 57 -90 142 -117 210 -124 226 -132 287 -6 44
-33 146 -53 198 -3 8 17 23 58 43 68 32 92 30 109 -12z m-447 26 c-7 -2 -21
-2 -30 0 -10 3 -4 5 12 5 17 0 24 -2 18 -5z m-747 -18 c-21 -16 -32 -13 -21 4
3 6 14 11 23 11 15 -1 15 -2 -2 -15z m274 -18 c10 -4 8 -6 -6 -6 -12 -1 -25 6
-28 15 -5 13 -3 14 6 7 7 -6 20 -13 28 -16z m190 9 c0 -3 -4 -8 -10 -11 -5 -3
-10 -1 -10 4 0 6 5 11 10 11 6 0 10 -2 10 -4z m421 -19 c-13 -13 -26 -3 -16
12 3 6 11 8 17 5 6 -4 6 -10 -1 -17z m-1035 -21 c66 -27 71 -37 73 -126 1 -54
-1 -59 -151 -297 -83 -134 -153 -241 -155 -239 -8 8 127 594 147 639 11 26 22
47 24 47 1 0 29 -11 62 -24z m1167 -48 c55 -207 49 -261 -43 -458 -107 -229
-107 -244 8 -485 l67 -140 -1 -100 c0 -85 -5 -115 -33 -199 -18 -54 -36 -94
-40 -90 -4 5 -13 46 -19 91 -16 115 -60 214 -159 355 -142 202 -151 237 -112
411 39 171 19 304 -73 491 -21 43 -37 80 -36 81 2 1 35 7 73 13 39 6 84 14
101 18 l32 6 16 -70 c20 -90 20 -201 0 -344 -22 -153 -22 -289 1 -353 10 -27
40 -86 68 -130 55 -87 85 -125 47 -60 -131 227 -135 253 -89 540 29 182 26
271 -16 401 -6 19 2 24 87 51 51 17 96 31 99 32 3 1 13 -27 22 -61z m-816 36
c-3 -3 -12 -4 -19 -1 -8 3 -5 6 6 6 11 1 17 -2 13 -5z m466 -16 c21 -11 20
-13 -18 -19 -22 -5 -67 -7 -100 -7 -33 1 -45 3 -27 5 19 3 32 10 32 19 0 18
81 20 113 2z m-654 -22 c31 -8 73 -17 95 -21 l39 -6 -6 -60 c-10 -94 -43 -175
-128 -317 -140 -233 -168 -311 -152 -425 l9 -62 1 90 c0 122 4 132 186 431 59
99 85 168 99 264 l11 76 51 -7 c28 -4 75 -8 104 -8 l54 -1 -7 -52 c-25 -198
-56 -268 -163 -369 -261 -250 -256 -240 -246 -494 6 -148 4 -179 -10 -227 -18
-55 -113 -193 -174 -251 l-29 -28 2 28 c2 15 10 57 19 93 25 101 20 212 -15
383 -48 234 -44 256 81 432 27 39 62 104 77 145 26 71 28 84 28 237 0 90 4
163 9 163 4 0 34 -6 65 -14z m558 -87 l27 -40 -17 -82 c-9 -45 -19 -93 -20
-107 -11 -79 -92 -469 -96 -464 -3 3 -24 124 -46 269 -39 255 -40 267 -29 357
7 51 13 96 13 101 1 4 32 7 71 7 l70 0 27 -41z"/>
<path d="M4450 6870 c-6 -11 -8 -20 -6 -20 3 0 10 9 16 20 6 11 8 20 6 20 -3
0 -10 -9 -16 -20z"/>
<path d="M2180 6244 c0 -6 7 -19 16 -30 14 -18 14 -18 3 6 -14 31 -19 36 -19
24z"/>
<path d="M2230 6160 c6 -11 13 -20 16 -20 2 0 0 9 -6 20 -6 11 -13 20 -16 20
-2 0 0 -9 6 -20z"/>
<path d="M2290 6085 c13 -14 26 -25 28 -25 3 0 -5 11 -18 25 -13 14 -26 25
-28 25 -3 0 5 -11 18 -25z"/>
<path d="M1638 5333 c7 -3 16 -2 19 1 4 3 -2 6 -13 5 -11 0 -14 -3 -6 -6z"/>
<path d="M1708 5313 c7 -3 16 -2 19 1 4 3 -2 6 -13 5 -11 0 -14 -3 -6 -6z"/>
<path d="M1748 5303 c7 -3 16 -2 19 1 4 3 -2 6 -13 5 -11 0 -14 -3 -6 -6z"/>
<path d="M1805 5290 c27 -12 43 -12 25 0 -8 5 -22 9 -30 9 -10 0 -8 -3 5 -9z"/>
<path d="M3564 4534 c3 -9 6 -19 6 -24 0 -12 70 -51 81 -45 12 8 12 45 -1 45
-5 0 -10 -5 -10 -11 0 -6 -12 3 -26 20 -27 33 -61 43 -50 15z"/>
<path d="M3710 4490 c0 -5 5 -10 10 -10 6 0 10 5 10 10 0 6 -4 10 -10 10 -5 0
-10 -4 -10 -10z"/>
<path d="M2582 4350 c0 -19 2 -27 5 -17 2 9 2 25 0 35 -3 9 -5 1 -5 -18z"/>
<path d="M5113 4335 c0 -22 2 -30 4 -17 2 12 2 30 0 40 -3 9 -5 -1 -4 -23z"/>
<path d="M3676 4305 c4 -9 11 -14 16 -13 15 5 11 23 -6 26 -11 2 -14 -2 -10
-13z"/>
<path d="M4313 4205 c-15 -13 -43 -39 -61 -57 -27 -28 -34 -31 -42 -18 -6 9
-10 10 -10 3 0 -21 -38 -25 -65 -7 -24 15 -28 16 -42 2 -14 -14 -12 -17 20
-27 42 -14 56 -40 31 -58 -17 -12 -17 -13 0 -13 10 0 33 8 50 19 17 10 57 26
89 35 60 17 79 33 27 23 -36 -8 -41 10 -5 19 14 3 25 10 25 15 0 6 -9 5 -21
-1 -57 -31 -32 17 36 67 22 16 25 22 13 23 -9 0 -30 -11 -45 -25z"/>
<path d="M2538 3803 c7 -3 16 -2 19 1 4 3 -2 6 -13 5 -11 0 -14 -3 -6 -6z"/>
<path d="M3316 3501 c-3 -4 -24 -11 -46 -15 -52 -8 -52 -26 0 -26 22 0 40 -5
40 -10 0 -14 72 -1 82 14 5 8 8 7 8 -1 0 -7 4 -13 9 -13 5 0 7 9 4 19 -7 28
-84 53 -97 32z"/>
<path d="M3430 3459 c0 -5 5 -7 10 -4 6 3 10 8 10 11 0 2 -4 4 -10 4 -5 0 -10
-5 -10 -11z"/>
<path d="M1398 4433 c6 -2 18 -2 25 0 6 3 1 5 -13 5 -14 0 -19 -2 -12 -5z"/>
<path d="M1503 4433 c9 -2 23 -2 30 0 6 3 -1 5 -18 5 -16 0 -22 -2 -12 -5z"/>
<path d="M1565 4420 c27 -12 43 -12 25 0 -8 5 -22 9 -30 9 -10 0 -8 -3 5 -9z"/>
<path d="M6628 4493 c18 -2 45 -2 60 0 15 2 0 4 -33 4 -33 0 -45 -2 -27 -4z"/>
<path d="M6748 4493 c12 -2 30 -2 40 0 9 3 -1 5 -23 4 -22 0 -30 -2 -17 -4z"/>
<path d="M6548 4483 c6 -2 18 -2 25 0 6 3 1 5 -13 5 -14 0 -19 -2 -12 -5z"/>
<path d="M4401 1174 c0 -11 3 -14 6 -6 3 7 2 16 -1 19 -3 4 -6 -2 -5 -13z"/>
<path d="M4412 1100 c0 -19 2 -27 5 -17 2 9 2 25 0 35 -3 9 -5 1 -5 -18z"/>
<path d="M3302 1400 c0 -19 2 -27 5 -17 2 9 2 25 0 35 -3 9 -5 1 -5 -18z"/>
<path d="M3313 1295 c0 -38 2 -53 4 -32 2 20 2 52 0 70 -2 17 -4 1 -4 -38z"/>
<path d="M3302 1190 c0 -14 2 -19 5 -12 2 6 2 18 0 25 -3 6 -5 1 -5 -13z"/>
<path d="M3281 1104 c0 -11 3 -14 6 -6 3 7 2 16 -1 19 -3 4 -6 -2 -5 -13z"/>
<path d="M6442 5644 c-13 -6 -19 -14 -14 -18 10 -6 71 11 86 25 14 12 -46 7
-72 -7z"/>
<path d="M6323 5643 c9 -2 23 -2 30 0 6 3 -1 5 -18 5 -16 0 -22 -2 -12 -5z"/>
<path d="M6238 5633 c6 -2 18 -2 25 0 6 3 1 5 -13 5 -14 0 -19 -2 -12 -5z"/>
<path d="M6178 5623 c7 -3 16 -2 19 1 4 3 -2 6 -13 5 -11 0 -14 -3 -6 -6z"/>
<path d="M6380 5626 c0 -2 9 -6 20 -9 11 -3 18 -1 14 4 -5 9 -34 13 -34 5z"/>
<path d="M6130 5610 c0 -5 7 -7 15 -4 8 4 15 8 15 10 0 2 -7 4 -15 4 -8 0 -15
-4 -15 -10z"/>
<path d="M6239 5503 c-13 -16 -12 -17 4 -4 9 7 17 15 17 17 0 8 -8 3 -21 -13z"/>
<path d="M5939 5483 l-24 -28 28 24 c25 23 32 31 24 31 -2 0 -14 -12 -28 -27z"/>
<path d="M5799 5313 c-13 -16 -12 -17 4 -4 16 13 21 21 13 21 -2 0 -10 -8 -17
-17z"/>
<path d="M5730 5259 c0 -5 5 -7 10 -4 6 3 10 8 10 11 0 2 -4 4 -10 4 -5 0 -10
-5 -10 -11z"/>
<path d="M5338 5223 c12 -2 30 -2 40 0 9 3 -1 5 -23 4 -22 0 -30 -2 -17 -4z"/>
<path d="M5488 5223 c28 -2 76 -2 105 0 28 2 5 3 -53 3 -58 0 -81 -1 -52 -3z"/>
<path d="M5268 5213 c7 -3 16 -2 19 1 4 3 -2 6 -13 5 -11 0 -14 -3 -6 -6z"/>
<path d="M5934 5078 l-29 -33 33 29 c30 28 37 36 29 36 -2 0 -16 -15 -33 -32z"/>
<path d="M5758 5003 c7 -3 16 -2 19 1 4 3 -2 6 -13 5 -11 0 -14 -3 -6 -6z"/>
<path d="M5708 4993 c7 -3 16 -2 19 1 4 3 -2 6 -13 5 -11 0 -14 -3 -6 -6z"/>
<path d="M5479 4893 c-13 -16 -12 -17 4 -4 16 13 21 21 13 21 -2 0 -10 -8 -17
-17z"/>
<path d="M5384 4808 l-29 -33 33 29 c17 17 32 31 32 33 0 8 -8 1 -36 -29z"/>
</g>
</svg>
